<svg width="18" height="16" viewBox="0 0 18 16" fill="none" xmlns="http://www.w3.org/2000/svg">
<path fill-rule="evenodd" clip-rule="evenodd" d="M8.99978 4.65302L7.88091 3.39998C7.23029 2.67134 6.20511 2.19196 5.14148 2.19196C3.26128 2.19196 1.92578 3.56543 1.92578 5.18922C1.92578 6.21822 2.39706 7.28166 3.57424 8.65514C4.76583 10.0454 6.49867 11.5502 8.73729 13.4903C8.73784 13.4908 8.73839 13.4913 8.73893 13.4917L8.99605 13.7133L9.26183 13.4825C11.5009 11.5462 13.2341 10.043 14.4257 8.65374C15.6025 7.28158 16.0738 6.21819 16.0738 5.18922C16.0738 3.56543 14.7383 2.19196 12.8581 2.19196C11.7945 2.19196 10.7693 2.67134 10.1187 3.39998L8.99978 4.65302ZM7.75655 14.6253L7.7227 14.596C3.32605 10.7856 0.425781 8.27216 0.425781 5.18922C0.425781 2.67075 2.50069 0.691956 5.14148 0.691956C6.24676 0.691956 7.3191 1.05549 8.18068 1.66952C8.48203 1.88428 8.7576 2.1297 8.99978 2.40092C9.24196 2.1297 9.51753 1.88428 9.81889 1.66951C10.6805 1.05549 11.7528 0.691956 12.8581 0.691956C15.4989 0.691956 17.5738 2.67075 17.5738 5.18922C17.5738 8.27753 14.6634 10.7944 10.2539 14.6077L10.243 14.6171L9.78723 15.0128C9.33509 15.4054 8.66338 15.4066 8.20977 15.0158L7.75655 14.6253Z" fill="#7D8081"/>
</svg>
