<svg width="32" height="26" viewBox="0 0 32 26" fill="none" xmlns="http://www.w3.org/2000/svg">
<g clip-path="url(#clip0_16343_543)">
<path d="M19.5438 19.9972C20.8136 20.4913 22.1628 20.7425 23.5228 20.7382H24.896L24.9784 17.3385H30.4089V25.9993H24.2614C21.1061 26.0196 18.001 25.1971 15.2582 23.6146L15.1731 23.6626C12.6604 25.061 9.62244 25.8747 6.34953 25.8747H0.200684V17.3043H5.63257V20.8272H7.08675C8.44186 20.8312 9.78672 20.589 11.0577 20.1122L11.1482 20.0807C9.52792 18.0261 8.58278 15.5949 8.58278 13.0047C8.58278 10.4625 9.49282 8.09288 11.0604 6.1013L10.9335 6.04514C9.70194 5.58707 8.39981 5.35516 7.0881 5.36028H5.71359L5.63257 14.2717H0.200684V0.0950514H6.34953C9.45354 0.0762811 12.5097 0.871296 15.2218 2.40304L15.3473 2.47974C17.8776 1.05112 20.9493 0.214217 24.2587 0.214217H30.4062V7.86551H24.9784V5.26303H23.5228C22.1333 5.25746 20.7546 5.51192 19.456 6.01364L19.5397 6.10678C21.1141 8.13534 22.0282 10.5351 22.0282 13.0842C22.0282 15.5908 21.1438 17.9303 19.614 19.904L19.5438 19.9972ZM15.2434 9.30098C14.5153 10.3741 14.1225 11.6445 14.1159 12.9472C14.1271 14.3312 14.5627 15.6773 15.3622 16.7989L15.4121 16.7372C16.1112 15.6779 16.487 14.4329 16.4923 13.1581C16.4811 11.8093 16.0663 10.4957 15.3028 9.39138L15.2434 9.30098Z" fill="white"/>
<path d="M27.6938 9.03809L28.396 11.205L30.5036 10.4106L29.2695 12.3186L31.1963 13.4952L28.959 13.7061L29.2533 15.9675L27.6938 14.3239L26.1357 15.9675L26.4301 13.7061L24.1914 13.4952L26.1168 12.3186L24.8841 10.4106L26.9917 11.2064L27.6938 9.03809Z" fill="white"/>
</g>
<defs>
<clipPath id="clip0_16343_543">
<rect width="31.2" height="26" fill="white" transform="translate(0.200195)"/>
</clipPath>
</defs>
</svg>
