<svg width="84" height="26" viewBox="0 0 84 26" fill="none" xmlns="http://www.w3.org/2000/svg">
<g clip-path="url(#clip0_16343_1304)">
<path d="M61.1921 1.11567C61.2972 1.54551 61.7542 1.83443 61.6365 2.35449C61.9065 2.82995 62.5169 2.59779 62.9151 2.80156C64.4767 2.94856 66.0495 2.94856 67.6111 2.80156C67.7906 2.84827 67.9565 2.93431 68.0959 3.053C68.2353 3.17169 68.3444 3.31981 68.4148 3.48585C68.3318 4.10222 69.0945 4.82706 68.4547 5.43228C68.2677 6.24329 68.004 7.01071 67.4588 7.66256C67.1541 7.77002 66.7843 7.89471 66.4513 7.77002C65.8577 7.26313 66.1361 6.24228 66.3735 5.56914C66.3735 5.51237 66.3567 5.45053 66.4155 5.43329C65.8409 5.10483 65.0372 5.1393 64.3932 5.04299C63.6946 4.86761 62.9445 4.92337 62.187 4.74799C61.9517 4.56754 61.7878 4.65776 61.5567 4.76522L61.3466 5.05414C61.3182 5.92598 60.8434 6.96712 61.2594 7.85517C61.1123 8.66618 61.0598 9.73266 62.1208 9.9192C63.0769 10.2994 63.9152 10.6157 64.9353 10.859C65.1696 11.0962 65.6791 10.9603 65.9554 11.1986C66.7958 11.4358 68.1773 11.1256 68.4767 12.3015C68.7593 13.0882 67.7098 13.1004 67.2402 13.2981C66.9177 13.2464 66.5952 13.3548 66.5048 13.6478C66.528 13.6093 66.487 13.5921 66.446 13.5464C66.176 13.8506 65.5909 13.732 65.427 13.9418C64.1663 14.2764 63.0338 15.0782 62.0189 15.8477L62.124 15.9835C61.2741 16.0352 60.5702 16.5837 59.9178 17.048C59.4608 18.1226 60.17 19.2144 60.4431 20.2332C60.6889 20.6691 60.7068 21.3869 61.3287 21.4832C62.8887 21.1155 64.4722 20.8476 66.0689 20.6813C66.1802 20.3133 66.3147 19.9717 66.3094 19.5611H66.3504C66.7706 18.4632 66.2275 17.049 67.1772 16.2796C67.776 16.4945 67.7918 15.9065 68.2446 16.2512C68.5333 16.0997 68.8544 16.0147 69.1827 16.0028C69.4401 16.2055 69.6922 16.4661 69.9685 16.6242C70.1093 17.269 69.8919 17.8691 69.7332 18.449C69.4181 20.0954 70.1209 22.2516 68.1805 22.9744C67.6174 22.9015 66.778 23.3029 66.5616 22.5568C66.3157 21.9688 65.7211 22.3763 65.2547 22.3642C63.1535 23.0829 60.7877 23.4215 58.9282 24.9047C58.5594 25.0121 58.1602 25.0567 57.8209 24.8144C56.8754 23.5574 58.529 22.6926 58.1245 21.4538C57.8619 20.8455 57.7673 20.0457 57.3639 19.4263C56.9941 19.5905 57.0876 19.1485 57.0351 19.0471C57.1401 18.7815 57.0876 18.4875 56.9185 18.2098C56.4982 18.0394 55.9919 18.1084 55.6221 17.8418C55.9036 17.1514 55.3993 16.0089 56.6485 16.0028C56.5707 15.8842 57.1107 16.015 57.0004 15.7767C58.4712 15.1999 59.7613 14.4974 61.2153 13.8354C62.2354 13.3609 63.413 13.1399 64.3575 12.5286C64.1642 12.3482 63.9951 12.5175 63.8238 12.2803C61.9948 12.1667 60.2183 10.8934 58.3777 11.8109C58.0961 11.7257 57.8209 11.601 57.7736 11.2675C57.8381 9.19477 58.0487 7.12867 58.404 5.08354C58.468 4.34856 58.4512 3.64603 58.7506 2.95464C58.4922 2.75189 58.9671 2.51264 58.6676 2.29265C58.9828 1.73812 58.4575 0.670629 59.403 0.544922C60.0334 0.675697 60.7908 0.737537 61.189 1.11668" fill="white"/>
<path d="M61.1921 1.11567C61.2972 1.54551 61.7542 1.83443 61.6365 2.35449C61.9065 2.82995 62.5169 2.59779 62.9151 2.80156C64.4767 2.94856 66.0495 2.94856 67.6111 2.80156C67.7906 2.84827 67.9565 2.93431 68.0959 3.053C68.2353 3.17169 68.3444 3.31981 68.4148 3.48585C68.3318 4.10222 69.0945 4.82706 68.4547 5.43228C68.2677 6.24329 68.004 7.01071 67.4588 7.66256C67.1541 7.77002 66.7843 7.89471 66.4513 7.77002C65.8577 7.26314 66.1361 6.24228 66.3735 5.56914C66.3735 5.51237 66.3567 5.45053 66.4155 5.43329C65.8409 5.10483 65.0372 5.1393 64.3932 5.04299C63.6946 4.86761 62.9445 4.92337 62.187 4.74799C61.9517 4.56754 61.7878 4.65776 61.5567 4.76522L61.3466 5.05414C61.3182 5.92598 60.8434 6.96712 61.2594 7.85517C61.1123 8.66618 61.0598 9.73266 62.1208 9.9192C63.0769 10.2994 63.9152 10.6157 64.9353 10.859C65.1696 11.0962 65.6791 10.9603 65.9554 11.1986C66.7958 11.4358 68.1773 11.1256 68.4767 12.3015C68.7593 13.0882 67.7098 13.1004 67.2402 13.2981C66.9177 13.2464 66.5952 13.3548 66.5048 13.6478C66.528 13.6093 66.487 13.5921 66.446 13.5464C66.176 13.8506 65.5909 13.732 65.427 13.9418C64.1663 14.2764 63.0338 15.0782 62.0189 15.8477L62.124 15.9835C61.2741 16.0352 60.5702 16.5837 59.9178 17.048C59.4608 18.1226 60.17 19.2144 60.4431 20.2332C60.6889 20.6692 60.7068 21.3869 61.3287 21.4832C62.8887 21.1155 64.4722 20.8476 66.0689 20.6813C66.1802 20.3133 66.3147 19.9717 66.3094 19.5611H66.3504C66.7706 18.4632 66.2275 17.049 67.1772 16.2796C67.776 16.4945 67.7918 15.9065 68.2446 16.2512C68.5333 16.0997 68.8544 16.0147 69.1827 16.0028C69.4401 16.2055 69.6922 16.4661 69.9685 16.6242C70.1093 17.269 69.8919 17.8691 69.7332 18.449C69.4181 20.0954 70.1209 22.2516 68.1805 22.9744C67.6174 22.9015 66.778 23.3029 66.5616 22.5568C66.3157 21.9688 65.7211 22.3763 65.2547 22.3642C63.1535 23.0829 60.7877 23.4215 58.9282 24.9047C58.5594 25.0121 58.1602 25.0567 57.8209 24.8144C56.8754 23.5574 58.529 22.6926 58.1245 21.4538C57.8619 20.8455 57.7673 20.0457 57.3639 19.4263C56.9941 19.5905 57.0876 19.1485 57.0351 19.0471C57.1401 18.7815 57.0876 18.4875 56.9185 18.2098C56.4982 18.0394 55.9919 18.1084 55.6221 17.8418C55.9036 17.1514 55.3993 16.0089 56.6485 16.0028C56.5707 15.8842 57.1107 16.015 57.0004 15.7767C58.4712 15.1999 59.7613 14.4974 61.2153 13.8354C62.2354 13.3609 63.413 13.1399 64.3575 12.5286C64.1642 12.3482 63.9951 12.5175 63.8238 12.2803C61.9948 12.1667 60.2183 10.8934 58.3777 11.8109C58.0961 11.7257 57.8209 11.601 57.7736 11.2675C57.8381 9.19477 58.0487 7.12867 58.404 5.08354C58.468 4.34856 58.4512 3.64603 58.7506 2.95464C58.4922 2.75189 58.9671 2.51264 58.6676 2.29265C58.9828 1.73812 58.4575 0.670629 59.403 0.544922C60.0365 0.67367 60.7982 0.73551 61.1921 1.11567Z" stroke="white" stroke-width="0.0333351"/>
<path d="M74.6639 0.838578C74.7112 1.91317 76.078 2.68768 76.7577 3.50275C77.9979 4.35297 79.4461 4.87703 80.9599 5.02339C81.2824 4.994 81.5902 4.71116 81.8928 4.95446C82.7332 5.81514 82.2384 6.83398 82.79 7.80111C82.8015 8.15187 82.6849 8.50263 82.3792 8.68308C81.9747 8.79054 81.4652 8.9497 81.066 8.72262C80.691 8.49655 80.5407 8.16302 80.4745 7.73318C80.5912 7.21211 80.5502 7.15027 80.5271 6.64643C78.7737 5.9368 76.9688 5.72391 75.4728 4.43947H75.268C74.9528 6.12536 74.7101 7.43818 74.5326 9.24268L74.4969 9.18591C74.4569 9.8479 74.2689 10.6802 74.3855 11.3422L74.4685 11.4213C76.3206 10.0577 78.6256 9.88743 80.9116 9.66745C81.3686 9.71813 81.8371 9.76882 82.2132 10.0121C83.2743 11.5226 82.6408 13.7012 82.5284 15.3922C82.2132 17.7177 81.7005 19.9186 81.3843 22.228C80.7036 23.3756 79.0279 22.9001 77.8839 23.2904C76.8879 23.5347 75.9141 23.7973 74.9938 24.1967C74.2783 24.586 73.7447 25.543 72.8779 25.5379C72.1499 24.9712 72.6079 23.9159 72.1268 23.2184C72.0333 21.639 71.5059 20.4174 71.6341 18.9231C71.4702 18.3524 71.5879 17.8141 71.7875 17.3335C71.6341 17.0791 71.8515 17.2372 71.9745 17.0669C72.281 16.4303 72.7689 15.8909 73.3812 15.5118C73.9148 15.1387 74.7175 15.1843 75.1923 14.867L75.726 15.0029C76.1462 15.2056 76.1021 15.3597 76.3721 15.7946C76.5591 16.2478 76.3826 16.7293 76.1893 17.1531L74.7059 18.2165C74.1554 19.0366 74.4076 19.9592 74.5767 20.9152C74.6009 21.5599 74.583 22.0637 74.9055 22.596C76.2902 22.1094 77.7904 21.865 79.1971 21.419C79.2674 19.1279 80.0659 16.9483 80.276 14.72H80.3348C80.0711 14.1716 80.4924 13.4985 80.2298 12.9885C80.2066 12.4401 80.1247 11.993 80.0365 11.4101L79.7612 11.2074C78.2904 11.2631 77.0581 11.9474 75.809 12.5475C74.6366 13.1984 73.5923 14.4088 72.1741 14.0753C71.611 13.3657 72.1447 12.4229 71.8053 11.6311C71.5427 8.35665 73.1185 5.1714 73.0345 1.95777C72.8706 1.40933 72.7708 0.70172 73.1879 0.234375C73.4169 0.0823105 73.7447 -0.100167 74.0199 0.121847C74.4002 0.172535 74.4475 0.602371 74.6639 0.840606" fill="white"/>
<path d="M74.6639 0.838578C74.7112 1.91317 76.078 2.68768 76.7577 3.50275C77.9979 4.35297 79.4461 4.87703 80.9599 5.02339C81.2824 4.994 81.5902 4.71116 81.8928 4.95446C82.7332 5.81514 82.2384 6.83398 82.79 7.80111C82.8015 8.15187 82.6849 8.50263 82.3792 8.68308C81.9747 8.79054 81.4652 8.9497 81.066 8.72262C80.691 8.49655 80.5407 8.16302 80.4745 7.73318C80.5912 7.21211 80.5502 7.15027 80.5271 6.64643C78.7737 5.9368 76.9688 5.72391 75.4728 4.43947H75.268C74.9528 6.12536 74.7101 7.43818 74.5326 9.24268L74.4969 9.18591C74.4569 9.8479 74.2689 10.6802 74.3855 11.3422L74.4685 11.4213C76.3206 10.0577 78.6256 9.88743 80.9116 9.66745C81.3686 9.71813 81.8371 9.76882 82.2132 10.0121C83.2743 11.5226 82.6408 13.7012 82.5284 15.3922C82.2132 17.7177 81.7005 19.9186 81.3843 22.228C80.7036 23.3756 79.0279 22.9001 77.8839 23.2904C76.8879 23.5347 75.9141 23.7973 74.9938 24.1967C74.2783 24.586 73.7447 25.543 72.8779 25.5379C72.1499 24.9712 72.6079 23.9159 72.1268 23.2184C72.0333 21.639 71.5059 20.4174 71.6341 18.9231C71.4702 18.3524 71.5879 17.8141 71.7875 17.3335C71.6341 17.0791 71.8515 17.2372 71.9745 17.0669C72.281 16.4303 72.7689 15.8909 73.3812 15.5118C73.9148 15.1387 74.7175 15.1843 75.1923 14.867L75.726 15.0029C76.1462 15.2056 76.1021 15.3597 76.3721 15.7946C76.5591 16.2478 76.3826 16.7293 76.1893 17.1531L74.7059 18.2165C74.1554 19.0366 74.4076 19.9592 74.5767 20.9152C74.6009 21.5599 74.583 22.0637 74.9055 22.596C76.2902 22.1094 77.7904 21.865 79.1971 21.419C79.2674 19.1279 80.0659 16.9483 80.276 14.72H80.3348C80.0711 14.1716 80.4924 13.4985 80.2298 12.9885C80.2066 12.4401 80.1247 11.993 80.0365 11.4101L79.7612 11.2074C78.2904 11.2631 77.0581 11.9474 75.809 12.5475C74.6366 13.1984 73.5923 14.4088 72.1741 14.0753C71.611 13.3657 72.1447 12.4229 71.8053 11.6311C71.5427 8.35665 73.1185 5.1714 73.0345 1.95777C72.8706 1.40933 72.7708 0.70172 73.1879 0.234375C73.4169 0.0823105 73.7447 -0.100167 74.0199 0.121847C74.4002 0.170508 74.4475 0.600344 74.6639 0.838578Z" stroke="white" stroke-width="0.0333351"/>
<path d="M54.8651 2.71013C54.8357 3.67727 53.9858 4.47003 53.1411 5.05294C52.994 5.31855 53.3701 5.40877 53.4048 5.62369C52.8281 7.19029 52.3717 8.79569 52.0391 10.4269C52.3206 11.0777 51.8636 11.5076 51.9865 12.1574C51.8468 12.9106 52.1683 13.3678 52.2334 14.0308C52.3385 15.1622 52.4435 16.3726 52.5486 17.4422L52.6074 17.4077C52.7724 17.9399 52.5728 18.613 52.9016 19.0885C52.8711 20.0779 52.9772 21.0745 53.2357 21.9007C54.0587 21.99 54.8389 22.3013 55.487 22.7989C55.3693 23.3595 54.7127 23.6545 54.2841 23.9931C53.534 24.6723 52.7787 23.8116 51.9277 23.9252C50.4033 23.6079 48.9966 24.7169 47.5595 24.3043C47.2674 23.987 47.5006 23.6586 47.5889 23.3706H47.5311C48.1699 22.9013 49.1143 23.0665 49.794 22.6012C50.0577 22.589 50.3624 22.4998 50.3918 22.2504C50.5683 21.7922 50.0577 21.3624 50.1344 20.8808C49.5041 19.8509 49.0492 18.9456 48.3926 17.9896C47.8589 16.3442 46.7117 14.9067 45.9185 13.3445C44.7629 11.5573 43.2984 9.47498 42.002 7.76882L41.897 7.86411C41.9316 8.75825 41.6795 9.63009 41.8549 10.4675L41.7499 10.5688C41.8087 11.8533 41.9495 13.1428 41.5912 14.337C41.6963 14.9027 41.4746 15.4004 41.6858 15.9316C41.5272 17.7929 42.0188 19.5244 41.4211 21.2336C42.8225 20.9447 44.2891 20.4013 45.7903 20.8149C46.1234 21.0816 46.3282 21.0248 46.3934 21.4769C46.4182 21.7074 46.36 21.939 46.2284 22.1328C45.6842 22.8567 44.7167 22.2231 44.0075 22.3984C43.8605 22.6478 43.602 22.3711 43.3772 22.5181C42.1396 22.7147 41.2761 23.5247 40.0522 23.762L39.9471 23.915C39.6319 23.7914 39.5321 24.2709 39.156 24.1634C38.8409 24.4868 38.3765 24.6703 37.9311 24.7919C37.368 24.7189 36.7755 24.2151 36.6116 23.7234C36.4067 22.4724 38.1244 23.0898 38.7337 22.3822C38.5814 22.0254 38.6518 21.6584 38.7222 21.3533C38.6696 21.0187 38.6465 20.6507 38.7989 20.2827C39.0153 19.1007 38.7453 18.0261 38.9039 16.916L38.8283 16.7802C38.9974 13.38 39.0268 9.74261 38.9564 6.22384C39.0857 6.015 38.9333 5.60038 38.9859 5.352C39.1729 5.19892 38.8976 4.99617 38.7989 4.82079C38.1538 4.7407 37.0339 5.19892 36.8028 4.35142C36.7849 3.57082 37.3123 2.92505 37.9584 2.55807C39.1371 2.35532 40.3799 1.90622 41.5356 2.25394C42.1039 2.03902 42.5325 2.52056 43.083 2.29956C43.4234 2.36748 43.8689 2.32186 44.0391 2.69594C44.1798 3.3042 43.4875 3.49884 43.1356 3.87799C42.9307 3.96822 42.6103 4.00268 42.5378 4.22875C42.667 4.56228 42.9255 4.20037 43.1177 4.40413C44.1157 4.78328 44.5086 5.78488 45.1295 6.50262C46.4721 8.5849 48.0028 10.729 49.2456 12.8285C49.3801 12.3074 49.4557 11.3971 49.4557 10.7919C49.7026 10.0224 49.6207 9.45065 49.9022 8.74304C50.2006 8.14898 50.2237 7.54376 50.3004 6.88786L50.2006 6.78648C50.3645 6.67395 50.106 6.60603 50.1649 6.47525C49.2687 6.23803 47.9492 7.10886 47.362 5.96837C47.2695 5.65715 47.5616 5.44831 47.8253 5.28408C50.2888 5.278 51.5726 3.38834 53.3491 1.98022C53.9458 1.83931 54.6854 2.037 54.8619 2.7223" fill="white"/>
<path d="M54.8651 2.7108C54.8357 3.67793 53.9858 4.47069 53.1411 5.0536C52.994 5.31921 53.3701 5.40944 53.4048 5.62435C52.8281 7.19095 52.3717 8.79635 52.0391 10.4276C52.3206 11.0784 51.8636 11.5082 51.9865 12.1581C51.8468 12.9113 52.1683 13.3685 52.2334 14.0315C52.3385 15.1629 52.4435 16.3733 52.5486 17.4428L52.6074 17.4083C52.7724 17.9406 52.5728 18.6137 52.9016 19.0892C52.8711 20.0786 52.9772 21.0751 53.2357 21.9013C54.0587 21.9906 54.8389 22.3019 55.487 22.7995C55.3693 23.3602 54.7127 23.6552 54.2841 23.9938C53.534 24.673 52.7787 23.8123 51.9277 23.9258C50.4033 23.6085 48.9966 24.7176 47.5595 24.305C47.2674 23.9877 47.5006 23.6592 47.5889 23.3713H47.5311C48.1699 22.9019 49.1143 23.0672 49.794 22.6019C50.0577 22.5897 50.3624 22.5005 50.3918 22.2511C50.5683 21.7929 50.0577 21.363 50.1344 20.8815C49.5041 19.8515 49.0492 18.9462 48.3926 17.9902C47.8589 16.3449 46.7117 14.9074 45.9185 13.3452C44.7629 11.5579 43.2984 9.47564 42.002 7.76948L41.897 7.86477C41.9316 8.75891 41.6795 9.63075 41.8549 10.4681L41.7499 10.5695C41.8087 11.8539 41.9495 13.1434 41.5912 14.3377C41.6963 14.9033 41.4746 15.4011 41.6858 15.9323C41.5272 17.7936 42.0188 19.5251 41.4211 21.2343C42.8225 20.9454 44.2891 20.402 45.7903 20.8156C46.1234 21.0822 46.3282 21.0255 46.3934 21.4776C46.4182 21.708 46.36 21.9397 46.2284 22.1335C45.6842 22.8573 44.7167 22.2237 44.0075 22.3991C43.8605 22.6485 43.602 22.3717 43.3772 22.5187C42.1396 22.7154 41.2761 23.5254 40.0522 23.7626L39.9471 23.9157C39.6319 23.792 39.5321 24.2715 39.156 24.1641C38.8409 24.4875 38.3765 24.671 37.9311 24.7926C37.368 24.7196 36.7755 24.2158 36.6116 23.7241C36.4067 22.4731 38.1244 23.0905 38.7337 22.3829C38.5814 22.026 38.6518 21.6591 38.7222 21.3539C38.6696 21.0194 38.6465 20.6514 38.7989 20.2834C39.0153 19.1013 38.7453 18.0267 38.9039 16.9167L38.8283 16.7808C38.9974 13.3807 39.0268 9.74328 38.9564 6.2245C39.0857 6.01567 38.9333 5.60104 38.9859 5.35267C39.1729 5.19959 38.8976 4.99683 38.7989 4.82145C38.1538 4.74137 37.0339 5.19959 36.8028 4.35208C36.7849 3.57148 37.3123 2.92571 37.9584 2.55873C39.1371 2.35598 40.3799 1.90688 41.5356 2.2546C42.1039 2.03968 42.5325 2.52122 43.083 2.30022C43.4234 2.36814 43.8689 2.32253 44.0391 2.6966C44.1798 3.30486 43.4875 3.4995 43.1356 3.87865C42.9307 3.96888 42.6103 4.00335 42.5378 4.22941C42.667 4.56294 42.9255 4.20103 43.1177 4.4048C44.1157 4.78394 44.5086 5.78554 45.1295 6.50329C46.4721 8.58556 48.0028 10.7297 49.2456 12.8292C49.3801 12.3081 49.4557 11.3977 49.4557 10.7925C49.7026 10.0231 49.6207 9.45131 49.9022 8.74371C50.2006 8.14964 50.2237 7.54442 50.3004 6.88852L50.2006 6.78714C50.3645 6.67461 50.106 6.60669 50.1649 6.47592C49.2687 6.23869 47.9492 7.10952 47.362 5.96903C47.2695 5.65781 47.5616 5.44897 47.8253 5.28474C50.2888 5.27866 51.5726 3.389 53.3491 1.98089C53.949 1.82578 54.6886 2.02853 54.8651 2.7108Z" stroke="white" stroke-width="0.0333351"/>
<path d="M28.2756 0.735735C28.4458 1.64812 29.1087 0.55934 29.6413 1.00641C29.9996 1.17064 30.3273 1.54979 30.6268 1.77687L30.6677 1.73733L33.3939 4.81512C33.4402 5.20542 33.7564 5.36965 33.9917 5.70318L34.185 7.20862C33.687 10.9312 33.3057 15.412 34.1976 19.0149C35.0118 21.9345 31.8528 23.735 30.0164 25.6642C29.7348 25.7544 29.386 25.9014 29.1076 25.8335L28.8145 25.4939C28.6212 25.8386 28.2525 25.9632 27.8942 25.9754C26.6798 26.1163 26.2585 24.765 25.5725 24.0401C24.6638 22.9027 24.0545 21.5848 22.9808 20.4646C22.5353 20.4534 22.1015 20.125 21.8672 19.9668C21.8084 18.6824 21.052 17.1435 20.9521 15.5985C21.1339 12.9567 21.4774 10.2631 21.5268 7.50261C21.0288 7.31608 21.0015 6.80615 21.0015 6.35908C22.8137 4.50389 24.9653 2.66493 26.5422 0.682006C27.0401 0.479253 27.8501 0.290693 28.283 0.732694L28.2756 0.735735ZM27.9436 2.39628C27.1168 3.73039 25.5578 4.57993 24.4558 5.71636C24.7478 7.92332 24.3969 10.775 24.4663 13.1848C24.086 15.0805 24.8592 16.7948 25.0651 18.6114L25.2931 18.9896C27.1694 20.2912 28.0193 22.1809 29.0698 24.0026L29.4564 23.9175C29.9723 22.9564 31.5082 22.1302 31.2424 20.936C31.2067 16.8515 30.7266 12.8685 31.5712 9.03846C31.5639 7.9294 31.8811 6.9278 31.4662 5.92114C30.6162 4.57384 29.3083 3.35226 27.9426 2.39628" fill="white"/>
<path d="M28.2756 0.735525C28.4458 1.64791 29.1087 0.55913 29.6413 1.0062C29.9996 1.17043 30.3273 1.54958 30.6268 1.77666L30.6677 1.73712L33.3939 4.81491C33.4402 5.20521 33.7564 5.36944 33.9917 5.70297L34.185 7.20841C33.687 10.9309 33.3057 15.4118 34.1976 19.0147C35.0118 21.9343 31.8528 23.7348 30.0164 25.664C29.7348 25.7542 29.386 25.9012 29.1076 25.8333L28.8145 25.4937C28.6212 25.8383 28.2525 25.963 27.8942 25.9752C26.6798 26.1161 26.2585 24.7648 25.5725 24.0399C24.6638 22.9025 24.0545 21.5846 22.9808 20.4644C22.5353 20.4532 22.1015 20.1248 21.8672 19.9666C21.8084 18.6822 21.052 17.1433 20.9521 15.5983C21.1339 12.9564 21.4774 10.2629 21.5268 7.5024C21.0288 7.31586 21.0015 6.80594 21.0015 6.35887C22.8137 4.50368 24.9653 2.66472 26.5422 0.681795C27.0328 0.486139 27.8396 0.293524 28.2756 0.735525ZM27.9363 2.39911C27.1095 3.73322 25.5504 4.58276 24.4484 5.71919C24.7405 7.92615 24.3896 10.7779 24.4589 13.1876C24.0786 15.0833 24.8518 16.7976 25.0577 18.6143L25.2857 18.9924C27.162 20.2941 28.0119 22.1837 29.0625 24.0055L29.4491 23.9203C29.9649 22.9593 31.5008 22.133 31.235 20.9388C31.1993 16.8544 30.7192 12.8713 31.5639 9.04129C31.5565 7.93223 31.8738 6.93063 31.4588 5.92397C30.6099 4.57668 29.302 3.35509 27.9363 2.39911V2.39911Z" stroke="white" stroke-width="0.0333351"/>
<path d="M28.5638 8.95568C28.798 11.1789 28.007 13.2135 28.6047 15.3546C28.4703 15.8614 28.4755 16.2426 27.9828 16.5995C27.5783 16.7404 27.0982 17.1763 26.6643 16.7921C26.1884 16.565 26.1601 16.0824 26.0781 15.6485C26.2882 14.059 26.6349 12.589 26.7085 10.8626C26.7085 10.1833 26.3092 8.86546 27.1655 8.4417C27.7107 8.32816 28.3736 8.38392 28.5606 8.95568" fill="white"/>
<path d="M28.5638 8.95568C28.798 11.1789 28.007 13.2135 28.6047 15.3546C28.4703 15.8614 28.4755 16.2426 27.9828 16.5995C27.5783 16.7404 27.0982 17.1763 26.6643 16.7921C26.1884 16.565 26.1601 16.0824 26.0781 15.6485C26.2882 14.059 26.6349 12.589 26.7085 10.8626C26.7085 10.1833 26.3092 8.86546 27.1655 8.4417C27.7138 8.32816 28.3768 8.38392 28.5638 8.95568Z" stroke="white" stroke-width="0.0333351"/>
<path d="M7.86094 1.20926C7.80211 1.20926 7.779 1.22649 7.76219 1.26705C8.00172 1.33395 8.40093 1.37957 8.58793 1.23258V1.29442L8.28852 1.28327V1.22143C10.6166 1.66241 13.3312 0.410415 15.4323 1.66241C16.8159 3.18306 16.734 5.16497 17.0565 7.13674C17.2088 7.39727 17.6868 7.68011 17.4137 7.98627C16.1887 8.51748 16.3001 10.7914 14.5415 10.1811C14.2263 9.99454 14.3765 9.63161 14.2263 9.39439L13.8355 9.42784L11.6293 10.4355C11.4833 10.5257 11.5179 10.7802 11.5705 10.8988L16.0732 13.9614C16.7707 14.2564 17.815 13.7586 18.272 14.5514C18.6765 15.7335 18.4884 17.2217 18.8351 18.4777C18.5304 19.9091 19.6325 21.3801 18.2657 22.4263C18.4296 23.0153 19.4329 23.1785 19.0862 23.947C18.3413 24.5856 17.6795 25.2091 16.8233 25.4757C14.8356 24.5816 12.9005 23.8223 10.6323 23.6651C8.90205 23.4624 7.24321 23.0194 5.61274 23.5171C5.78924 24.2815 4.65148 24.5309 4.2176 24.9151C3.70703 25.2324 3.15023 24.8644 2.61129 24.83C1.82547 24.7681 0.564799 25.1189 0.271693 24.2359C0.207609 23.7097 0.383052 23.3235 0.691917 22.9058C2.05765 22.5003 3.23007 21.6396 4.64938 21.3852C5.39948 21.2716 6.15063 21.1368 6.90073 21.0233C6.27985 20.2477 5.41734 19.4611 5.42994 18.4149C5.36481 16.5414 5.73461 15.0765 5.69363 13.1433C5.32384 12.7246 6.16849 11.5426 5.01392 11.724C4.75548 11.5608 4.43927 11.3966 4.35102 11.1026C4.26382 10.7518 4.36783 10.542 4.48024 10.2135C4.85529 9.8962 5.43625 10.0442 5.74091 9.68737C5.71149 8.14847 5.61274 6.64608 5.63585 5.07677C5.4851 4.44169 5.41037 3.79201 5.41314 3.14048C3.65135 2.94685 1.41155 3.85214 0.0867945 2.39232C-0.176896 1.82462 0.355738 1.4698 0.648844 1.06835C3.02941 -0.42594 5.42784 1.58841 7.86094 1.20926ZM8.17611 1.22143L7.93658 1.21636L8.17611 1.22143ZM13.4016 3.24388C11.6367 2.8992 10.2005 3.13136 8.42929 3.05735C8.38307 5.2187 8.77598 7.44796 8.95457 9.64682C10.6901 8.93718 12.3489 8.09069 14.1433 7.51791C14.2252 6.27909 14.0193 5.02304 13.7325 3.85214L13.4016 3.24388ZM9.36744 12.9294C9.11531 15.255 9.95996 17.2075 9.70783 19.533L8.64046 20.8033L8.74551 20.9047C10.9086 20.712 13.2724 21.2321 15.2128 21.595C15.2296 21.0344 15.259 20.1758 15.2768 19.5351C15.2296 18.5213 15.3241 17.4933 15.1298 16.4573C13.2135 15.258 11.4423 13.8043 9.3727 12.9263" fill="white"/>
<path d="M7.86094 1.20926C7.80211 1.20926 7.779 1.22649 7.76219 1.26705C8.00172 1.33395 8.40093 1.37957 8.58793 1.23258V1.29442L8.28852 1.28327V1.22143C10.6166 1.66241 13.3312 0.410415 15.4323 1.66241C16.8159 3.18306 16.734 5.16497 17.0565 7.13674C17.2088 7.39727 17.6868 7.68011 17.4137 7.98627C16.1887 8.51748 16.3001 10.7914 14.5415 10.1811C14.2263 9.99454 14.3765 9.63161 14.2263 9.39439L13.8355 9.42784L11.6293 10.4355C11.4833 10.5257 11.5179 10.7802 11.5705 10.8988L16.0732 13.9614C16.7707 14.2564 17.815 13.7586 18.272 14.5514C18.6765 15.7335 18.4884 17.2217 18.8351 18.4777C18.5304 19.9091 19.6325 21.3801 18.2657 22.4263C18.4296 23.0153 19.4329 23.1785 19.0862 23.947C18.3413 24.5856 17.6795 25.2091 16.8233 25.4757C14.8356 24.5816 12.9005 23.8223 10.6323 23.6651C8.90205 23.4624 7.24321 23.0194 5.61274 23.5171C5.78924 24.2815 4.65148 24.5309 4.2176 24.9151C3.70703 25.2324 3.15023 24.8644 2.61129 24.83C1.82547 24.7681 0.564799 25.1189 0.271693 24.2359C0.207609 23.7097 0.383053 23.3235 0.691917 22.9058C2.05765 22.5003 3.23007 21.6396 4.64938 21.3852C5.39948 21.2716 6.15063 21.1368 6.90073 21.0233C6.27985 20.2477 5.41734 19.4611 5.42994 18.4149C5.36481 16.5414 5.73461 15.0765 5.69363 13.1433C5.32384 12.7246 6.16849 11.5426 5.01392 11.724C4.75548 11.5608 4.43927 11.3966 4.35102 11.1026C4.26382 10.7518 4.36783 10.542 4.48024 10.2135C4.85529 9.8962 5.43625 10.0442 5.74091 9.68737C5.71149 8.14847 5.61274 6.64608 5.63585 5.07677C5.4851 4.44169 5.41037 3.79201 5.41314 3.14048C3.65135 2.94685 1.41155 3.85214 0.0867945 2.39232C-0.176896 1.82462 0.355738 1.4698 0.648844 1.06835C3.02941 -0.42594 5.42784 1.58841 7.86094 1.20926ZM8.17611 1.22143L7.93658 1.21636L8.17611 1.22143ZM13.4016 3.24388C11.6367 2.8992 10.2005 3.13136 8.42929 3.05735C8.38307 5.2187 8.77598 7.44796 8.95457 9.64682C10.6901 8.93718 12.3489 8.09069 14.1433 7.51791C14.2252 6.27909 14.0193 5.02304 13.7325 3.85214L13.4016 3.24388ZM9.36744 12.9294C9.11531 15.255 9.95996 17.2075 9.70783 19.533L8.64046 20.8033L8.74551 20.9047C10.9086 20.712 13.2724 21.2321 15.2128 21.595C15.2296 21.0344 15.259 20.1758 15.2768 19.5351C15.2296 18.5213 15.3241 17.4933 15.1298 16.4573C13.2083 15.258 11.437 13.8043 9.36744 12.9263V12.9294Z" stroke="white" stroke-width="0.0333351"/>
</g>
<defs>
<clipPath id="clip0_16343_1304">
<rect width="84" height="26" fill="white"/>
</clipPath>
</defs>
</svg>
