<svg width="112" height="24" viewBox="0 0 112 24" fill="none" xmlns="http://www.w3.org/2000/svg">
<g clip-path="url(#clip0_16343_1222)">
<path d="M42.4616 -0.0859375H35.4093C35.1693 -0.0859375 34.9785 0.0432931 34.9785 0.264832V16.8802C34.9815 16.9329 34.9953 16.9843 35.0188 17.0315C35.0424 17.0787 35.0754 17.1205 35.1157 17.1545C35.156 17.1885 35.2029 17.2139 35.2534 17.2292C35.3038 17.2444 35.3569 17.2492 35.4093 17.2433H42.4616C42.514 17.2492 42.567 17.2444 42.6175 17.2292C42.668 17.2139 42.7148 17.1885 42.7552 17.1545C42.7955 17.1205 42.8284 17.0787 42.852 17.0315C42.8756 16.9843 42.8893 16.9329 42.8924 16.8802V0.264832C42.8924 0.0432931 42.7016 -0.0859375 42.4616 -0.0859375Z" fill="white"/>
<path d="M70.1054 -0.117188H52.1669C47.3854 -0.117188 44.9238 1.74127 44.9238 4.63358V16.8674C44.926 16.9198 44.939 16.9712 44.9619 17.0183C44.9848 17.0654 45.0172 17.1074 45.0571 17.1414C45.0969 17.1755 45.1434 17.201 45.1935 17.2163C45.2436 17.2316 45.2964 17.2365 45.3484 17.2305H52.4131C52.4655 17.2365 52.5185 17.2316 52.569 17.2164C52.6195 17.2011 52.6663 17.1757 52.7066 17.1417C52.7469 17.1077 52.7799 17.0659 52.8035 17.0187C52.8271 16.9716 52.8408 16.9201 52.8438 16.8674V5.59358C52.8438 4.61512 53.6684 3.98128 55.3054 3.98128H66.9977C68.6223 3.98128 69.4592 4.59666 69.4592 5.59358V11.5197C69.4592 12.4982 68.6346 13.1197 66.9977 13.1197H64.0869C63.7484 13.1409 63.4167 13.2243 63.1084 13.3659L56.85 16.5659C56.7907 16.5906 56.7402 16.6325 56.7051 16.6863C56.67 16.7401 56.6518 16.8032 56.6531 16.8674C56.6552 16.9204 56.6683 16.9723 56.6916 17.0199C56.7149 17.0675 56.7479 17.1098 56.7884 17.1439C56.8289 17.1781 56.8761 17.2034 56.927 17.2183C56.9779 17.2332 57.0313 17.2374 57.0838 17.2305H70.1238C74.9361 17.2305 77.3731 15.3844 77.3731 12.4797V4.63358C77.3731 1.74127 74.9115 -0.117188 70.1238 -0.117188" fill="white"/>
<path d="M25.7355 -0.116986H7.79708C2.97862 -0.116986 0.547852 1.72917 0.547852 4.63378V16.8676C0.549968 16.9206 0.563095 16.9725 0.586398 17.0201C0.6097 17.0677 0.642667 17.11 0.683195 17.1441C0.723723 17.1783 0.770924 17.2036 0.821788 17.2185C0.872653 17.2334 0.926066 17.2376 0.978621 17.2307H8.04324C8.09563 17.2367 8.14869 17.2318 8.19917 17.2166C8.24965 17.2013 8.29648 17.1759 8.3368 17.1419C8.37712 17.1079 8.41009 17.0661 8.43368 17.0189C8.45727 16.9718 8.47099 16.9203 8.47401 16.8676V5.59378C8.47401 4.61532 9.29862 3.98148 10.9355 3.98148H22.6279C24.2525 3.98148 25.0894 4.59686 25.0894 5.59378V7.96302C25.0894 8.94148 24.2648 9.56917 22.6279 9.56917H17.7417C17.4025 9.58086 17.0694 9.66257 16.7632 9.80917L10.5048 13.003C10.4443 13.0302 10.393 13.0743 10.357 13.13C10.321 13.1857 10.3018 13.2506 10.3017 13.3169C10.3017 13.5322 10.4925 13.6676 10.7325 13.6676H14.9417C15.2678 13.6782 15.5883 13.7557 15.8832 13.8953L21.9325 16.9722C22.2388 17.1131 22.5683 17.1965 22.9048 17.2184H31.3171C31.3696 17.2253 31.423 17.2211 31.4739 17.2062C31.5248 17.1913 31.572 17.166 31.6125 17.1318C31.653 17.0977 31.686 17.0554 31.7093 17.0078C31.7326 16.9602 31.7457 16.9083 31.7479 16.8553C31.7491 16.7911 31.731 16.728 31.6958 16.6742C31.6607 16.6204 31.6102 16.5785 31.5509 16.5538L26.9786 14.2215C26.9311 14.1926 26.892 14.1519 26.865 14.1034C26.838 14.0548 26.8242 14.0001 26.8248 13.9446C26.8261 13.8551 26.861 13.7694 26.9225 13.7044C26.9841 13.6394 27.0678 13.5999 27.1571 13.5938H27.274C31.0648 13.2307 32.9848 11.483 32.9848 8.91686V4.60917C32.9848 1.71686 30.5232 -0.141602 25.7355 -0.141602" fill="white"/>
<path d="M103.44 7.09512H98.517C98.1811 7.10734 97.8516 7.19127 97.5508 7.34128L91.2924 10.529C91.2319 10.5562 91.1806 10.6003 91.1446 10.656C91.1086 10.7116 91.0894 10.7765 91.0893 10.8428C91.0931 10.8941 91.1072 10.9441 91.1309 10.9898C91.1545 11.0355 91.1871 11.076 91.2268 11.1088C91.2665 11.1415 91.3123 11.1659 91.3617 11.1805C91.411 11.1951 91.4628 11.1995 91.5139 11.1936H109.36C110.985 11.1936 111.822 10.5782 111.822 9.59358V4.63358C111.822 1.74127 109.36 -0.117188 104.572 -0.117188H86.6154C81.797 -0.117188 79.3662 1.72897 79.3662 4.63358V12.4797C79.3662 15.372 81.797 17.2305 86.6154 17.2305H111.385C111.437 17.2374 111.49 17.2333 111.541 17.2183C111.591 17.2034 111.638 17.1779 111.678 17.1437C111.718 17.1094 111.75 17.0671 111.773 17.0195C111.796 16.9719 111.808 16.9201 111.809 16.8674C111.811 16.8032 111.792 16.7401 111.757 16.6863C111.722 16.6325 111.672 16.5906 111.612 16.5659L105.36 13.3659C105.051 13.2265 104.72 13.1432 104.382 13.1197H89.7416C88.1108 13.1197 87.2801 12.5044 87.2801 11.5197V5.59358C87.2801 4.61512 88.1047 3.98128 89.7416 3.98128H101.434C103.065 3.98128 103.895 4.59666 103.895 5.59358V6.76897C103.895 6.99051 103.711 7.11974 103.465 7.11974" fill="white"/>
<path d="M27.6001 22.455V22.8427C27.5985 22.9526 27.5537 23.0575 27.4754 23.1346C27.3971 23.2118 27.2916 23.255 27.1817 23.255H25.514C25.4046 23.255 25.2997 23.2116 25.2224 23.1343C25.1451 23.0569 25.1017 22.9521 25.1017 22.8427V21.1812C25.1017 21.0718 25.1451 20.9669 25.2224 20.8896C25.2997 20.8123 25.4046 20.7689 25.514 20.7689H27.1817C27.2916 20.7688 27.3971 20.8121 27.4754 20.8892C27.5537 20.9664 27.5985 21.0713 27.6001 21.1812V22.455ZM27.1817 19.9258H25.514C25.1876 19.9258 24.8745 20.0555 24.6437 20.2863C24.4129 20.5171 24.2832 20.8301 24.2832 21.1565V22.8181C24.2832 23.1445 24.4129 23.4576 24.6437 23.6884C24.8745 23.9192 25.1876 24.0489 25.514 24.0489H27.1817C27.5081 24.0489 27.8211 23.9192 28.052 23.6884C28.2828 23.4576 28.4124 23.1445 28.4124 22.8181V21.1565C28.4124 20.8301 28.2828 20.5171 28.052 20.2863C27.8211 20.0555 27.5081 19.9258 27.1817 19.9258Z" fill="white"/>
<path d="M63.9446 22.455V22.8427C63.9454 22.8971 63.9353 22.9511 63.9149 23.0015C63.8944 23.0519 63.8641 23.0976 63.8256 23.1361C63.7872 23.1746 63.7414 23.2049 63.691 23.2253C63.6406 23.2457 63.5866 23.2558 63.5323 23.255H61.8646C61.7552 23.255 61.6503 23.2116 61.573 23.1343C61.4957 23.0569 61.4523 22.9521 61.4523 22.8427V21.1812C61.4523 21.0718 61.4957 20.9669 61.573 20.8896C61.6503 20.8123 61.7552 20.7689 61.8646 20.7689H63.5323C63.5866 20.768 63.6406 20.7781 63.691 20.7986C63.7414 20.819 63.7872 20.8493 63.8256 20.8878C63.8641 20.9262 63.8944 20.972 63.9149 21.0224C63.9353 21.0728 63.9454 21.1268 63.9446 21.1812V22.455ZM63.5323 19.9258H61.8646C61.5381 19.9258 61.2251 20.0555 60.9943 20.2863C60.7635 20.5171 60.6338 20.8301 60.6338 21.1565V22.8181C60.6338 23.1445 60.7635 23.4576 60.9943 23.6884C61.2251 23.9192 61.5381 24.0489 61.8646 24.0489H63.5323C63.8587 24.0489 64.1717 23.9192 64.4025 23.6884C64.6334 23.4576 64.763 23.1445 64.763 22.8181V21.1565C64.763 20.8301 64.6334 20.5171 64.4025 20.2863C64.1717 20.0555 63.8587 19.9258 63.5323 19.9258Z" fill="white"/>
<path d="M75.8277 21.5942H73.323V21.1819C73.3247 21.072 73.3695 20.9671 73.4478 20.89C73.5261 20.8128 73.6316 20.7696 73.7415 20.7696H75.4092C75.5186 20.7712 75.6233 20.8149 75.7012 20.8917C75.7792 20.9685 75.8245 21.0725 75.8277 21.1819V21.5942ZM75.4092 19.9265H73.7415C73.4151 19.9265 73.102 20.0562 72.8712 20.287C72.6404 20.5178 72.5107 20.8309 72.5107 21.1573V23.8158C72.5107 23.8486 72.5173 23.8811 72.53 23.9114C72.5428 23.9417 72.5615 23.9691 72.585 23.992C72.6085 24.015 72.6364 24.033 72.667 24.045C72.6975 24.057 72.7302 24.0627 72.763 24.0619H73.0954C73.1282 24.0627 73.1609 24.057 73.1914 24.045C73.222 24.033 73.2499 24.015 73.2734 23.992C73.2969 23.9691 73.3156 23.9417 73.3284 23.9114C73.3411 23.8811 73.3477 23.8486 73.3477 23.8158V22.4004H75.8523V23.8158C75.8523 23.8486 75.8588 23.8811 75.8716 23.9114C75.8843 23.9417 75.903 23.9691 75.9265 23.992C75.9501 24.015 75.9779 24.033 76.0085 24.045C76.0391 24.057 76.0717 24.0627 76.1046 24.0619H76.4307C76.4636 24.0627 76.4963 24.057 76.5268 24.045C76.5574 24.033 76.5853 24.015 76.6088 23.992C76.6323 23.9691 76.651 23.9417 76.6637 23.9114C76.6765 23.8811 76.6831 23.8486 76.6831 23.8158V21.1573C76.6832 20.992 76.65 20.8283 76.5854 20.6761C76.5209 20.5239 76.4264 20.3863 76.3075 20.2714C76.1886 20.1566 76.0478 20.0668 75.8934 20.0076C75.7391 19.9483 75.5744 19.9207 75.4092 19.9265Z" fill="white"/>
<path d="M86.8246 21.5933H84.7508V20.7687H86.8246C86.934 20.7687 87.0388 20.8121 87.1162 20.8895C87.1935 20.9668 87.2369 21.0717 87.2369 21.181C87.2369 21.2904 87.1935 21.3952 87.1162 21.4726C87.0388 21.5499 86.934 21.5933 86.8246 21.5933ZM86.8246 19.9256H83.92V23.8395C83.9192 23.872 83.9249 23.9044 83.937 23.9347C83.9491 23.9649 83.9672 23.9924 83.9902 24.0154C84.0132 24.0384 84.0407 24.0565 84.071 24.0686C84.1012 24.0807 84.1336 24.0865 84.1662 24.0856H84.4985C84.5313 24.0865 84.564 24.0807 84.5946 24.0687C84.6251 24.0567 84.653 24.0387 84.6765 24.0157C84.7 23.9928 84.7187 23.9654 84.7315 23.9351C84.7442 23.9048 84.7508 23.8723 84.7508 23.8395V22.4241H86.8246C86.9362 22.4241 87.0433 22.468 87.1227 22.5463C87.2022 22.6246 87.2476 22.731 87.2492 22.8426V23.8395C87.2492 23.8723 87.2558 23.9048 87.2685 23.9351C87.2813 23.9654 87.3 23.9928 87.3235 24.0157C87.347 24.0387 87.3749 24.0567 87.4055 24.0687C87.436 24.0807 87.4687 24.0865 87.5015 24.0856H87.8277C87.8605 24.0865 87.8932 24.0807 87.9238 24.0687C87.9544 24.0567 87.9822 24.0387 88.0057 24.0157C88.0293 23.9928 88.0479 23.9654 88.0607 23.9351C88.0734 23.9048 88.08 23.8723 88.08 23.8395V22.8426C88.0791 22.5346 87.9627 22.2381 87.7539 22.0118C87.9247 21.8354 88.0389 21.6119 88.0816 21.3701C88.1244 21.1282 88.0939 20.8791 87.994 20.6548C87.8941 20.4305 87.7293 20.2411 87.5209 20.1112C87.3125 19.9813 87.07 19.9166 86.8246 19.9256Z" fill="white"/>
<path d="M98.892 22.8427C98.892 22.8974 98.8812 22.9515 98.8601 23.0019C98.839 23.0524 98.808 23.0981 98.7691 23.1365C98.7302 23.1748 98.684 23.2051 98.6332 23.2254C98.5825 23.2458 98.5282 23.2558 98.4736 23.255H96.3997V20.7935H98.4613C98.5159 20.7927 98.5702 20.8027 98.6209 20.8231C98.6717 20.8434 98.7178 20.8737 98.7568 20.912C98.7957 20.9504 98.8267 20.9961 98.8478 21.0466C98.8689 21.097 98.8797 21.1511 98.8797 21.2058V22.8673L98.892 22.8427ZM98.4613 19.9504H95.809C95.742 19.9504 95.6779 19.977 95.6305 20.0243C95.5832 20.0716 95.5566 20.1358 95.5566 20.2027V23.8642C95.5566 23.8971 95.5632 23.9296 95.5759 23.9599C95.5887 23.9902 95.6074 24.0176 95.6309 24.0405C95.6544 24.0635 95.6823 24.0815 95.7129 24.0935C95.7434 24.1055 95.7761 24.1112 95.809 24.1104H98.4613C98.7877 24.1104 99.1007 23.9807 99.3315 23.7499C99.5624 23.5191 99.692 23.2061 99.692 22.8796V21.2181C99.7004 21.0514 99.6747 20.8847 99.6166 20.7282C99.5585 20.5717 99.4692 20.4286 99.354 20.3077C99.2389 20.1869 99.1004 20.0907 98.9469 20.025C98.7934 19.9593 98.6282 19.9256 98.4613 19.9258V19.9504Z" fill="white"/>
<path d="M51.8893 21.5935H49.8093V20.7689H51.8893C51.9986 20.7689 52.1035 20.8123 52.1808 20.8896C52.2582 20.9669 52.3016 21.0718 52.3016 21.1812C52.3016 21.2905 52.2582 21.3954 52.1808 21.4727C52.1035 21.55 51.9986 21.5935 51.8893 21.5935ZM51.8893 23.255H49.8093V22.4242H51.8893C51.9992 22.4259 52.1041 22.4707 52.1812 22.549C52.2584 22.6273 52.3016 22.7328 52.3016 22.8427C52.3016 22.9521 52.2582 23.0569 52.1808 23.1343C52.1035 23.2116 51.9986 23.255 51.8893 23.255ZM51.8893 19.9258H49.2308C49.1639 19.9258 49.0997 19.9524 49.0524 19.9997C49.0051 20.047 48.9785 20.1112 48.9785 20.1781V23.8396C48.9785 23.8725 48.9851 23.905 48.9978 23.9353C49.0106 23.9655 49.0293 23.993 49.0528 24.0159C49.0763 24.0388 49.1042 24.0568 49.1347 24.0688C49.1653 24.0808 49.198 24.0866 49.2308 24.0858H51.8893C52.2157 24.0858 52.5288 23.9561 52.7596 23.7253C52.9904 23.4945 53.1201 23.1814 53.1201 22.855C53.1191 22.547 53.0027 22.2506 52.7939 22.0242C52.9643 21.8482 53.0783 21.6253 53.1213 21.3841C53.1642 21.1429 53.1342 20.8943 53.0351 20.6702C52.9359 20.4462 52.7722 20.2568 52.5648 20.1264C52.3573 19.9959 52.1157 19.9304 51.8708 19.9381L51.8893 19.9258Z" fill="white"/>
<path d="M41.2315 19.9258H40.9053C40.8389 19.9273 40.7756 19.9544 40.7287 20.0014C40.6817 20.0484 40.6546 20.1117 40.653 20.1781V22.8427C40.653 22.9521 40.6096 23.0569 40.5323 23.1343C40.455 23.2116 40.3501 23.255 40.2407 23.255H39.49C39.4356 23.2558 39.3816 23.2457 39.3312 23.2253C39.2808 23.2049 39.235 23.1746 39.1966 23.1361C39.1581 23.0976 39.1278 23.0519 39.1073 23.0015C39.0869 22.9511 39.0768 22.8971 39.0777 22.8427V20.1781C39.0761 20.1117 39.049 20.0484 39.002 20.0014C38.955 19.9544 38.8918 19.9273 38.8253 19.9258H38.493C38.4602 19.9258 38.4277 19.9323 38.3974 19.9451C38.3671 19.9578 38.3397 19.9765 38.3168 20C38.2938 20.0236 38.2758 20.0514 38.2638 20.082C38.2518 20.1126 38.2461 20.1453 38.2469 20.1781V22.8427C38.2461 22.8977 38.2345 22.9519 38.2127 23.0024C38.1909 23.0528 38.1594 23.0985 38.12 23.1368C38.0805 23.1751 38.034 23.2052 37.9829 23.2255C37.9318 23.2458 37.8772 23.2558 37.8223 23.255H37.0777C36.9677 23.255 36.8622 23.2118 36.7839 23.1346C36.7056 23.0575 36.6608 22.9526 36.6592 22.8427V20.1781C36.6576 20.1117 36.6305 20.0484 36.5836 20.0014C36.5366 19.9544 36.4733 19.9273 36.4069 19.9258H36.0746C36.0082 19.9273 35.9449 19.9544 35.8979 20.0014C35.8509 20.0484 35.8238 20.1117 35.8223 20.1781V22.8427C35.8223 23.1691 35.9519 23.4822 36.1827 23.713C36.4136 23.9438 36.7266 24.0735 37.053 24.0735H37.7976C38.1069 24.0758 38.4057 23.9615 38.6346 23.7535C38.8619 23.9601 39.1582 24.0742 39.4653 24.0735H40.2161C40.5425 24.0735 40.8556 23.9438 41.0864 23.713C41.3172 23.4822 41.4469 23.1691 41.4469 22.8427V20.1781C41.4469 20.1112 41.4203 20.047 41.373 19.9997C41.3257 19.9524 41.2615 19.9258 41.1946 19.9258" fill="white"/>
<path d="M15.5329 19.9258H13.8714C13.545 19.9258 13.2319 20.0555 13.0011 20.2863C12.7703 20.5171 12.6406 20.8301 12.6406 21.1566V23.815C12.6406 23.8479 12.6472 23.8804 12.6599 23.9107C12.6727 23.9409 12.6914 23.9683 12.7149 23.9913C12.7384 24.0142 12.7663 24.0322 12.7968 24.0442C12.8274 24.0562 12.8601 24.062 12.8929 24.0612H13.2252C13.2581 24.062 13.2908 24.0562 13.3213 24.0442C13.3519 24.0322 13.3798 24.0142 13.4033 23.9913C13.4268 23.9683 13.4455 23.9409 13.4582 23.9107C13.471 23.8804 13.4776 23.8479 13.4775 23.815V21.1566C13.4767 21.1022 13.4868 21.0482 13.5072 20.9978C13.5277 20.9474 13.558 20.9016 13.5965 20.8632C13.6349 20.8247 13.6807 20.7944 13.7311 20.7739C13.7815 20.7535 13.8355 20.7434 13.8899 20.7442H15.5514C15.6058 20.7434 15.6598 20.7535 15.7102 20.7739C15.7606 20.7944 15.8063 20.8247 15.8448 20.8632C15.8832 20.9016 15.9136 20.9474 15.934 20.9978C15.9544 21.0482 15.9645 21.1022 15.9637 21.1566V23.815C15.9645 23.8481 15.9718 23.8808 15.9852 23.9111C15.9987 23.9414 16.0179 23.9688 16.0419 23.9916C16.0659 24.0145 16.0942 24.0324 16.1251 24.0443C16.1561 24.0563 16.189 24.062 16.2222 24.0612H16.5483C16.5812 24.062 16.6138 24.0562 16.6444 24.0442C16.675 24.0322 16.7029 24.0142 16.7264 23.9913C16.7499 23.9683 16.7686 23.9409 16.7813 23.9107C16.7941 23.8804 16.8006 23.8479 16.8006 23.815V21.1566C16.8006 20.8301 16.671 20.5171 16.4401 20.2863C16.2093 20.0555 15.8963 19.9258 15.5699 19.9258" fill="white"/>
<path d="M110.154 21.594H108.486C108.377 21.594 108.272 21.5506 108.195 21.4733C108.118 21.396 108.074 21.2911 108.074 21.1817C108.074 21.0724 108.118 20.9675 108.195 20.8902C108.272 20.8129 108.377 20.7694 108.486 20.7694H110.154C110.237 20.7679 110.318 20.7919 110.386 20.8382C110.454 20.8845 110.506 20.9507 110.536 21.0279C110.556 21.0752 110.59 21.1158 110.632 21.1452C110.674 21.1745 110.724 21.1914 110.776 21.194H111.114C111.181 21.1925 111.244 21.1654 111.291 21.1184C111.338 21.0714 111.365 21.0082 111.366 20.9417C111.37 20.9131 111.37 20.8842 111.366 20.8556C111.298 20.5836 111.138 20.3433 110.915 20.1743C110.691 20.0053 110.416 19.9178 110.136 19.9263H108.468C108.137 19.9263 107.819 20.058 107.585 20.2922C107.35 20.5265 107.219 20.8443 107.219 21.1756C107.219 21.5069 107.35 21.8246 107.585 22.0589C107.819 22.2932 108.137 22.4248 108.468 22.4248H110.154C110.265 22.4264 110.37 22.471 110.448 22.5491C110.526 22.6273 110.571 22.7328 110.573 22.8433C110.571 22.9532 110.526 23.0581 110.448 23.1352C110.37 23.2124 110.264 23.2556 110.154 23.2556H108.486C108.403 23.2567 108.322 23.2317 108.253 23.1843C108.185 23.1369 108.133 23.0693 108.105 22.991C108.085 22.9449 108.053 22.9054 108.011 22.877C107.97 22.8487 107.921 22.8327 107.871 22.831H107.533C107.466 22.831 107.402 22.8575 107.354 22.9049C107.307 22.9522 107.28 23.0164 107.28 23.0833C107.275 23.1097 107.275 23.1369 107.28 23.1633C107.349 23.4278 107.503 23.6621 107.719 23.8293C107.935 23.9964 108.201 24.0868 108.474 24.0864H110.154C110.481 24.0864 110.794 23.9567 111.024 23.7259C111.255 23.4951 111.385 23.182 111.385 22.8556C111.385 22.5292 111.255 22.2161 111.024 21.9853C110.794 21.7545 110.481 21.6248 110.154 21.6248" fill="white"/>
<path d="M3.88304 21.594H2.2215C2.11215 21.594 2.00728 21.5506 1.92995 21.4733C1.85263 21.396 1.80919 21.2911 1.80919 21.1817C1.80919 21.0724 1.85263 20.9675 1.92995 20.8902C2.00728 20.8129 2.11215 20.7694 2.2215 20.7694H3.88304C3.96619 20.7684 4.04771 20.7925 4.11689 20.8386C4.18608 20.8848 4.23971 20.9507 4.27073 21.0279C4.29003 21.0761 4.32307 21.1175 4.36575 21.1471C4.40842 21.1766 4.45884 21.1929 4.51073 21.194H4.84919C4.91514 21.191 4.97759 21.1635 5.02427 21.1168C5.07095 21.0701 5.0985 21.0077 5.1015 20.9417C5.10538 20.9131 5.10538 20.8842 5.1015 20.8556C5.03292 20.5836 4.87352 20.3433 4.6497 20.1743C4.42587 20.0053 4.15105 19.9178 3.87073 19.9263H2.20919C1.87787 19.9263 1.56013 20.058 1.32585 20.2922C1.09158 20.5265 0.959961 20.8443 0.959961 21.1756C0.959961 21.5069 1.09158 21.8246 1.32585 22.0589C1.56013 22.2932 1.87787 22.4248 2.20919 22.4248H3.87073C3.98171 22.4248 4.08815 22.4689 4.16663 22.5474C4.2451 22.6259 4.28919 22.7323 4.28919 22.8433C4.2892 22.8979 4.27833 22.9521 4.25723 23.0025C4.23612 23.0529 4.2052 23.0987 4.16626 23.137C4.12732 23.1754 4.08114 23.2056 4.0304 23.226C3.97967 23.2463 3.92539 23.2564 3.87073 23.2556H2.20919C2.12513 23.257 2.04269 23.2323 1.97325 23.185C1.90381 23.1376 1.85079 23.0698 1.8215 22.991C1.80233 22.9444 1.77 22.9045 1.72846 22.8761C1.68691 22.8476 1.63798 22.832 1.58765 22.831H1.23073C1.19788 22.831 1.16536 22.8375 1.13509 22.8503C1.10481 22.863 1.0774 22.8817 1.05446 22.9052C1.03152 22.9287 1.01352 22.9566 1.00152 22.9872C0.989515 23.0178 0.983755 23.0504 0.984576 23.0833C0.979103 23.1097 0.979103 23.1369 0.984576 23.1633C1.05314 23.4289 1.20845 23.6639 1.42586 23.8312C1.64326 23.9984 1.9103 24.0882 2.18458 24.0864H3.84611C4.17253 24.0864 4.48559 23.9567 4.7164 23.7259C4.94721 23.4951 5.07688 23.182 5.07688 22.8556C5.07688 22.5292 4.94721 22.2161 4.7164 21.9853C4.48559 21.7545 4.17253 21.6248 3.84611 21.6248" fill="white"/>
</g>
<defs>
<clipPath id="clip0_16343_1222">
<rect width="112" height="24" fill="white"/>
</clipPath>
</defs>
</svg>
