<svg width="145" height="22" viewBox="0 0 145 22" fill="none" xmlns="http://www.w3.org/2000/svg">
<g clip-path="url(#clip0_16343_522)">
<path d="M99.1678 17.9367C95.5298 17.9403 92.713 14.7296 92.7118 11.0371C92.7095 7.2075 95.5751 4.07805 99.1643 4.07684C102.752 4.07441 105.618 7.20143 105.62 11.031C105.62 14.7259 102.806 17.9355 99.1678 17.9367ZM82.9431 17.5387H81.1612L81.1601 12.2542L83.0174 12.2554C86.1165 12.253 86.5033 14.1119 86.5033 14.9201C86.5044 17.5375 83.6388 17.5375 82.9431 17.5387ZM81.1589 4.48819L82.6294 4.48698C84.6424 4.48576 85.3649 5.4553 85.3649 6.64325C85.3661 8.79952 83.1452 8.79952 82.3205 8.80195H81.1601L81.1589 4.48819ZM144.421 10.8017L131.954 10.8053L131.956 14.2588L139.959 14.2551C138.85 16.5752 136.656 17.9233 134.307 17.9258C129.763 17.9258 127.568 14.0719 127.566 11.025C127.564 7.8943 129.809 4.06591 134.121 4.06349C136.651 4.06227 138.406 5.54509 139.231 6.86652L143.466 6.86531C142.484 4.00646 138.999 0.611265 134.196 0.61248C129.662 0.613693 125.568 3.79774 124.377 8.3008L124.374 1.02019L120.837 1.02141L120.841 15.5304L120.793 15.5292L112.887 1.02383L108.861 1.02626L108.864 8.53257C107.777 3.90938 103.779 0.623402 99.1608 0.62583C93.7409 0.627043 89.1725 5.15922 89.1748 11.0638C89.1748 11.3587 89.1899 11.6499 89.2143 11.9375C88.5128 10.883 87.508 10.3806 86.7623 10.0943C87.3558 9.74358 88.903 8.79831 88.903 6.29135C88.9019 4.91653 88.2305 3.4592 87.2757 2.57096C85.6205 1.03354 83.5041 1.03597 81.3889 1.03597H77.6196L77.6266 20.9921L82.7375 20.9885C83.978 20.9897 86.2233 20.855 87.6671 19.8017C88.7973 18.9633 89.9705 17.5338 90.0344 15.2489C91.5932 18.8698 95.1035 21.3901 99.1701 21.3877C103.847 21.3865 107.792 18.0483 108.864 13.5331L108.868 20.9812L112.403 20.9788L112.398 6.47216H112.45L120.432 20.9763L124.381 20.9739L124.377 13.7212C125.578 18.2728 129.705 21.3768 134.308 21.3756C139.653 21.3743 144.425 16.9223 144.422 11.2337L144.421 10.8017Z" fill="white"/>
<path d="M44.0555 1.10236H43.8952L43.894 1.26981L43.8975 20.9554V21.124H44.059L45.1927 21.1228L45.353 21.1216L45.3541 20.9541L45.3472 1.27103L45.346 1.10236H45.1857H44.0555Z" fill="white"/>
<path d="M74.2617 3.87431L74.2687 14.8377L64.6637 14.8389L74.2617 3.87431ZM75.5638 1.08705L74.8704 1.08462L74.7984 1.08584L74.7507 1.14044L58.4714 19.7424H56.9324L56.9312 1.26542V1.09797H56.7732H55.6303L55.47 1.09676V1.263L55.4746 19.7424L47.8722 19.7448L47.8664 1.26906L47.8652 1.1004L47.7049 1.09918L46.5736 1.09797H46.4121V1.26542L46.4191 20.9534L46.4202 21.1209L46.5805 21.1221L55.6361 21.1196L57.6328 21.116H59.0975L65.8357 21.1148L65.9972 21.1136V20.9461L65.9949 19.9074V19.7388H65.8346L60.3741 19.7412L63.3326 16.3593L74.2687 16.3581L74.2698 20.9425L74.271 21.1111H74.4325L75.572 21.1099L75.7323 21.1087V20.9413L75.723 1.25572V1.08705H75.5638Z" fill="white"/>
<path d="M31.9407 10.8793L37.2944 10.8768C38.859 10.8756 40.0577 11.3003 40.858 12.1412C41.5771 12.8936 41.9557 13.9893 41.9557 15.3095C41.9569 17.3262 41.1601 19.7349 37.3257 19.7483L31.9442 19.7519L31.9407 10.8793ZM37.0168 9.49959L31.9431 9.50323L31.9396 2.48594L36.5138 2.48108C39.075 2.48351 40.3748 3.66297 40.3772 5.98912C40.3795 8.34318 39.2865 9.49231 37.0168 9.49959ZM39.8324 10.008C41.1391 9.34063 41.8291 7.96095 41.8349 5.98912C41.8314 2.92884 39.8858 1.10262 36.6288 1.10383L30.6398 1.10747L30.4795 1.10868V1.27493L30.4865 20.958V21.1267L30.6468 21.1279L37.4651 21.1267H37.4953C41.2042 21.1122 43.4181 18.9365 43.417 15.3083C43.4146 12.7856 42.0243 10.7543 39.8324 10.008Z" fill="white"/>
<path fill-rule="evenodd" clip-rule="evenodd" d="M21.379 15.756C21.0955 14.812 22.1526 13.1107 24.5512 13.493C24.5512 13.493 23.7032 12.3159 20.9689 12.5586C17.9442 12.8316 15.3644 15.1517 12.9449 16.3858C10.5218 17.6186 9.09079 17.2109 8.66566 16.0157C8.23937 14.8156 9.47062 13.5439 11.839 13.607C10.3662 12.2322 8.05932 12.4069 6.29259 12.9955C4.65479 13.5415 2.9531 14.5766 0.57538 15.6917L0.574219 21.123H28.583V15.8628C22.8425 17.8419 21.6624 16.6697 21.379 15.756Z" fill="white"/>
<path fill-rule="evenodd" clip-rule="evenodd" d="M28.5778 1.11076L0.57373 1.11197L0.574891 8.13776C2.94912 7.01533 4.64849 5.96692 6.28397 5.42573C8.05186 4.82994 10.3599 4.66127 11.8339 6.03852C9.47246 5.96692 8.23191 7.25316 8.66401 8.45082C9.08566 9.64242 10.5167 10.0501 12.9374 8.82456C15.3569 7.58079 17.9437 5.25585 20.9626 4.98768C23.6911 4.74621 24.5484 5.92688 24.5484 5.92688C22.1474 5.53979 21.095 7.24103 21.3715 8.18629C21.6596 9.09394 22.8432 10.2649 28.5836 8.28458L28.5778 1.11076Z" fill="white"/>
</g>
<defs>
<clipPath id="clip0_16343_522">
<rect width="145" height="22" fill="white"/>
</clipPath>
</defs>
</svg>
