<svg width="144" height="22" viewBox="0 0 144 22" fill="none" xmlns="http://www.w3.org/2000/svg">
<g clip-path="url(#clip0_16343_1239)">
<path d="M143.201 0.578568H123.573C123.479 0.578358 123.385 0.596885 123.297 0.633087C123.21 0.669289 123.13 0.722456 123.063 0.789543C122.996 0.85663 122.943 0.936321 122.906 1.02405C122.87 1.11178 122.851 1.20583 122.851 1.30081V20.9077C122.851 21.0026 122.87 21.0966 122.906 21.1843C122.943 21.2719 122.996 21.3515 123.063 21.4185C123.13 21.4855 123.21 21.5385 123.297 21.5745C123.385 21.6105 123.479 21.6288 123.573 21.6283H143.209C143.303 21.6281 143.396 21.6092 143.483 21.5729C143.57 21.5365 143.648 21.4833 143.715 21.4164C143.781 21.3494 143.833 21.27 143.869 21.1827C143.905 21.0955 143.923 21.002 143.922 20.9077V1.30081C143.922 1.20586 143.904 1.11178 143.868 1.024C143.832 0.936217 143.779 0.856466 143.712 0.789337C143.645 0.722207 143.565 0.669025 143.477 0.632852C143.39 0.59668 143.296 0.578231 143.201 0.578568ZM134.628 18.5162H131.459C128.416 18.5162 126.022 16.1496 126.022 13.0898V3.70063H130.292V13.0103C130.292 13.7728 130.84 14.5049 131.647 14.5049H134.659C136.024 14.5049 136.592 13.7884 136.592 12.5738C136.592 12.0971 136.41 11.6603 136.078 11.318L134.628 9.81766V13.3925H131.419V5.35968C131.419 4.33698 132.299 3.70094 133.089 3.70094H140.499V6.84663H137.163L138.954 8.66469C140.032 9.76274 140.681 11.2724 140.681 12.7801C140.69 15.3549 138.581 18.5162 134.628 18.5162ZM94.1682 0.929472C90.935 -0.516291 86.7439 -0.287357 83.7805 1.69993C77.6859 5.78881 77.7958 16.6975 84.1124 20.5261C87.1468 22.3688 91.3545 22.4729 94.5389 20.9C101.941 17.2377 101.871 4.36795 94.1682 0.929472ZM89.6747 17.261C85.236 17.261 84.7946 12.4633 84.7946 11.0006C84.7946 9.26911 85.324 4.75014 89.6747 4.75014C93.4458 4.75014 94.5647 8.33965 94.5647 11.0006C94.5644 15.0129 92.4562 17.261 89.6747 17.261ZM35.8236 16.8326C35.8236 16.8326 32.4398 16.8402 32.2894 16.8402C29.5793 16.8402 28.5649 15.4264 28.5649 12.7015V0.444465H23.041V12.3685C23.041 18.5481 25.863 21.6066 32.2894 21.6066H41.3633V0.444465H35.8389L35.8236 16.8326ZM62.8296 5.20067H68.0894V21.6063H73.6294V5.20067H78.8109V0.444465H62.8219V5.20067H62.8296ZM110.959 0.444465H101.871V21.6063H107.392L107.385 5.20067C107.385 5.20067 110.801 5.20993 110.95 5.20993C113.661 5.20993 114.675 6.61674 114.675 9.34766V21.6066H120.19V9.681C120.198 3.51001 117.377 0.444465 110.959 0.444465ZM61.316 6.74318C61.316 2.65111 58.6199 0.444465 54.6669 0.444465H44.0792V21.6063H49.603V5.0043H53.5812C55.689 5.0043 56.3544 5.82936 56.3544 7.17199C56.3544 9.72187 51.6236 11.7478 51.6236 11.7478L57.6845 21.599H63.5029L58.074 12.7973C58.89 12.2172 61.316 10.531 61.316 6.74318ZM18.5641 10.6919C19.7063 10.0396 20.8077 8.36328 20.8077 6.40121C20.8077 2.22389 18.1529 0.420518 13.9531 0.420518H11.0688V4.82135H13.4926C15.2924 4.82135 16.0451 5.94143 15.8788 7.25117C15.6661 8.88851 14.3573 9.99263 11.9166 10.6759C14.3809 11.121 15.9412 12.1932 16.1244 13.9886C16.2741 15.4423 15.4428 17.0229 12.7896 17.0229H8.59653V0.420518H3.68296L0.078125 4.80442H3.28738V21.583H14.1987C18.2154 21.583 21.266 19.0168 21.266 15.0598C21.2663 12.8516 19.7063 11.2312 18.5641 10.6919Z" fill="white"/>
</g>
<defs>
<clipPath id="clip0_16343_1239">
<rect width="144" height="22" fill="white"/>
</clipPath>
</defs>
</svg>
