<svg width="135" height="26" viewBox="0 0 135 26" fill="none" xmlns="http://www.w3.org/2000/svg">
<g clip-path="url(#clip0_16343_1319)">
<path d="M13.2019 3.47075C7.90788 3.47075 3.61914 7.72129 3.61914 12.9698C3.61914 18.2122 7.90788 22.4668 13.2019 22.4668C18.4889 22.4668 22.7836 18.2122 22.7836 12.9698C22.7836 7.72129 18.4889 3.47075 13.2019 3.47075ZM14.4205 19.7489V16.6521L17.4625 17.8099L17.4675 15.1775L14.4205 14.0289V13.1857L17.4625 14.3588L17.4675 11.7234L14.4205 10.5716V9.70705L17.4625 10.8781L17.4675 8.25286L13.2019 6.53187L8.86183 8.24675V10.8781L11.9471 9.68871V10.5543L8.86183 11.7234L8.84875 14.3486L11.9471 13.1653V14.0034L8.86183 15.1755L8.84875 17.8038L11.9471 16.6378V19.7377C8.70988 19.1552 6.25357 16.3486 6.25357 12.9698C6.25357 9.16427 9.36296 6.07973 13.2019 6.07973C17.0338 6.07973 20.1522 9.16427 20.1522 12.9698C20.1522 16.3578 17.6758 19.1735 14.4205 19.7489Z" fill="white"/>
<path d="M19.7356 4.68359C18.2564 3.54408 16.4572 2.77931 14.501 2.5512L14.506 -0.0598154C17.1857 0.189677 19.635 1.23347 21.6073 2.8343L19.7356 4.68359Z" fill="white"/>
<path d="M23.4116 4.61754C25.0569 6.57784 26.1246 9.02388 26.3832 11.7031H23.7457C23.5062 9.74181 22.7244 7.94037 21.542 6.46786L23.4116 4.61754Z" fill="white"/>
<path d="M4.86997 6.53214C3.72081 7.99345 2.95302 9.76637 2.71655 11.7002H0.0791016C0.336708 9.04947 1.39128 6.62684 3.00736 4.67979L4.86997 6.53214Z" fill="white"/>
<path d="M4.81152 2.87841C6.78986 1.25416 9.25624 0.188982 11.9541 -0.0666199L11.9581 2.54847C9.97874 2.7837 8.16544 3.56069 6.67716 4.72363L4.81152 2.87841Z" fill="white"/>
<path d="M26.3831 14.2313C25.7461 20.8719 20.1009 26.0664 13.2331 26.0664C6.35923 26.0664 0.719062 20.8698 0.0800781 14.2272H2.71551C3.34745 19.433 7.81229 23.4625 13.2331 23.4625C18.6499 23.4625 23.1197 19.433 23.7456 14.2313H26.3831Z" fill="white"/>
<path d="M69.3682 22.4595C69.3682 16.1211 69.3682 9.84384 69.3682 3.40354C71.3418 3.40354 73.2752 3.38353 75.1884 3.44437C75.3898 3.44437 75.6718 3.91311 75.7725 4.21883C76.9405 8.03002 78.0885 11.8412 79.4378 15.7339C79.5586 15.3875 79.6795 15.041 79.7802 14.6945C80.8274 11.189 81.8747 7.70393 82.9018 4.19844C83.083 3.58703 83.3448 3.40362 83.949 3.42399C85.7213 3.46481 87.4935 3.444 89.3262 3.444C89.3262 9.8639 89.3262 16.1412 89.3262 22.5203C87.8762 22.5203 86.4463 22.5203 84.9358 22.5203C84.9358 17.9958 84.9358 13.4305 84.9358 8.88564C84.8956 8.86563 84.8755 8.86563 84.8352 8.84481C83.5462 13.4101 82.2573 17.9754 80.9483 22.5814C80.0219 22.5814 79.1559 22.6425 78.2899 22.5406C78.0281 22.5206 77.6656 22.1126 77.585 21.8069C76.4169 17.8123 75.2891 13.8177 74.1412 9.82303C74.0606 9.51733 73.9599 9.21161 73.7183 8.92627C73.7183 13.4101 73.7183 17.9142 73.7183 22.4795C72.3085 22.4595 70.8988 22.4595 69.3682 22.4595V22.4595Z" fill="white"/>
<path d="M109.063 11.067C109.063 15.0005 109.063 18.6894 109.063 22.4802C107.593 22.4802 106.143 22.4802 104.612 22.4802C104.612 16.1622 104.612 9.84418 104.612 3.42427C105.861 3.42427 107.049 3.38344 108.258 3.46509C108.56 3.48511 108.902 3.89308 109.103 4.19877C111.178 7.56159 113.232 10.9448 115.286 14.328C115.467 14.6337 115.669 14.9394 115.951 15.347C115.951 11.3116 115.951 7.43933 115.951 3.50585C117.381 3.50585 118.851 3.50585 120.402 3.50585C120.402 9.80349 120.402 16.1419 120.402 22.5618C119.133 22.5618 117.864 22.6026 116.615 22.521C116.333 22.501 116.011 22.1541 115.85 21.8688C113.816 18.6283 111.822 15.3877 109.808 12.1268C109.567 11.8211 109.365 11.5358 109.063 11.067Z" fill="white"/>
<path d="M66.9307 18.2409C66.9307 19.7083 66.9307 21.0738 66.9307 22.5004C63.4869 22.5004 60.0632 22.5004 56.5791 22.5004C56.5791 16.162 56.5791 9.844 56.5791 3.46484C60.0229 3.46484 63.4265 3.46484 66.9307 3.46484C66.9307 4.85072 66.9307 6.21623 66.9307 7.68365C65.0376 7.68365 63.1647 7.68365 61.2514 7.68365C61.2514 8.72305 61.2514 9.6402 61.2514 10.7C63.1042 10.7 64.9369 10.7 66.8099 10.7C66.8099 12.147 66.8099 13.4921 66.8099 14.9392C64.9772 14.9392 63.1647 14.9392 61.2514 14.9392C61.2514 16.0805 61.2514 17.0995 61.2514 18.2205C63.1445 18.2405 64.9973 18.2405 66.9307 18.2405V18.2409Z" fill="white"/>
<path d="M91.7227 3.46484C95.1665 3.46484 98.57 3.46484 102.074 3.46484C102.074 4.83036 102.074 6.19584 102.074 7.68365C100.181 7.68365 98.2881 7.68365 96.3346 7.68365C96.3346 8.72305 96.3346 9.66058 96.3346 10.6592C98.1874 10.6592 99.9798 10.6592 101.873 10.6592C101.873 12.1063 101.873 13.4718 101.873 14.9392C100.06 14.9392 98.2478 14.9392 96.3346 14.9392C96.3346 16.0601 96.3346 17.0995 96.3346 18.2409C98.2478 18.2409 100.141 18.2409 102.094 18.2409C102.094 19.6879 102.094 21.033 102.094 22.4597C98.6707 22.4597 95.2269 22.4597 91.7227 22.4597C91.7227 16.162 91.7227 9.844 91.7227 3.46484Z" fill="white"/>
<path d="M31.0029 22.4598C31.0029 16.1418 31.0029 9.86452 31.0029 3.48535C34.4669 3.48535 37.8906 3.48535 41.415 3.48535C41.415 4.8305 41.415 6.1756 41.415 7.64304C39.5219 7.64304 37.6086 7.64304 35.5947 7.64304C35.5947 8.68245 35.5947 9.61996 35.5947 10.6797C37.4274 10.6797 39.2802 10.6797 41.1934 10.6797C41.1934 12.1472 41.1934 13.4923 41.1934 14.9801C39.3205 14.9801 37.4676 14.9801 35.5746 14.9801C35.5746 16.1214 35.5746 17.1201 35.5746 18.241C37.5281 18.241 39.4413 18.241 41.4351 18.241C41.4351 19.7084 41.4351 21.0332 41.4351 22.4802C37.9913 22.4602 34.5273 22.4602 31.0029 22.4602V22.4598Z" fill="white"/>
<path d="M134.922 3.50586C134.922 4.91213 134.922 6.25729 134.922 7.70431C133.714 7.70431 132.566 7.70431 131.297 7.70431C131.297 10.2519 131.297 12.6772 131.297 15.1229C131.297 17.5686 131.297 19.9939 131.297 22.5007C129.666 22.5007 128.135 22.5007 126.463 22.5007C126.463 20.0754 126.463 17.6501 126.463 15.2044C126.463 12.7587 126.463 10.3334 126.463 7.76543C125.195 7.76543 124.006 7.76543 122.758 7.76543C122.758 6.29805 122.758 4.9529 122.758 3.52627C126.766 3.50625 130.814 3.50625 134.922 3.50625V3.50586Z" fill="white"/>
<path d="M48.5638 3.50586C48.5638 8.39723 48.5638 13.2682 48.5638 18.2615C50.4569 18.2615 52.2493 18.2615 54.1222 18.2615C54.1222 19.7085 54.1222 21.0537 54.1222 22.4803C50.7187 22.4803 47.3152 22.4803 43.8311 22.4803C43.8311 16.203 43.8311 9.90543 43.8311 3.50586C45.3616 3.50586 46.9124 3.50586 48.5638 3.50586Z" fill="white"/>
</g>
<defs>
<clipPath id="clip0_16343_1319">
<rect width="135" height="26" fill="white"/>
</clipPath>
</defs>
</svg>
