<svg width="83" height="22" viewBox="0 0 83 22" fill="none" xmlns="http://www.w3.org/2000/svg">
<path d="M14.4692 6.74348C14.4692 4.97712 13.8333 3.37101 12.5613 2.16653C11.3685 0.962269 9.77854 0.400391 8.02956 0.400391H0V21.4367H2.62342V13.247H7.95017L12.641 21.4367H15.7413L10.7327 12.6848C12.9585 11.7215 14.4692 9.39296 14.4692 6.74348ZM7.87057 10.6776H2.62342V2.8893H8.02956C10.1761 2.8893 11.7661 4.49531 11.7661 6.74348C11.7661 8.99165 10.0965 10.6776 7.87057 10.6776Z" fill="white"/>
<path d="M29.2565 0C26.3151 0 23.5327 1.12409 21.4656 3.1314C19.3983 5.13872 18.2852 7.94888 18.2852 11.0001C18.2852 14.0508 19.3983 16.7809 21.4656 18.8683C23.5327 20.8762 26.2353 22 29.2565 22C32.1982 22 34.9808 20.8764 37.0479 18.8683C39.1152 16.8614 40.2277 14.0508 40.2277 11.0001C40.2277 7.94888 39.1152 5.21879 37.0479 3.1314C34.9809 1.0438 32.1982 0 29.2565 0ZM29.2565 19.2699C24.5664 19.2699 20.9885 15.6572 20.9885 10.9196C20.9885 6.10213 24.5664 2.56931 29.2565 2.56931C33.9475 2.56931 37.5249 6.18241 37.5249 10.9196C37.5249 15.6571 33.9476 19.2699 29.2565 19.2699Z" fill="white"/>
<path d="M60.422 0.401367H57.1623L51.5178 8.59099L45.7935 0.401367H42.3752L49.5301 10.518L41.9775 21.4376H45.2371L51.3591 12.5252L57.56 21.4376H60.9786L53.3466 10.518L60.422 0.401367Z" fill="white"/>
<path d="M79.8203 0.401367L73.778 10.0363L67.5768 0.401367H64.3965L72.2675 12.7662V21.4376H75.1293V12.7662L83.0001 0.401367H79.8203Z" fill="white"/>
</svg>
