<svg width="227" height="20" viewBox="0 0 227 20" fill="none" xmlns="http://www.w3.org/2000/svg">
<path d="M114.704 5.14914C115.322 6.6586 115.498 8.31319 115.211 9.91904C114.923 11.5249 114.185 13.0155 113.083 14.2162C112.993 14.3396 112.868 14.4332 112.725 14.4845C112.581 14.5359 112.425 14.5428 112.278 14.5042C112.167 14.4768 112.063 14.4241 111.975 14.3502C111.888 14.2763 111.818 14.1831 111.772 14.0779C111.715 13.9654 111.686 13.8411 111.686 13.715C111.686 13.589 111.715 13.4647 111.772 13.3521C112.68 12.4265 113.317 11.268 113.611 10.0038C113.905 8.73963 113.846 7.41866 113.439 6.18603C113.046 5.03998 112.359 4.01763 111.447 3.2215C110.535 2.42538 109.43 1.88344 108.243 1.65004C107.056 1.41663 105.829 1.49996 104.684 1.89167C103.539 2.28338 102.518 2.9697 101.721 3.88182C100.841 4.88811 100.266 6.1248 100.062 7.44701C99.8582 8.76922 100.035 10.1222 100.571 11.3475C100.926 12.097 101.409 12.7792 101.997 13.3636L107.471 18.79C107.543 18.8995 107.587 19.0251 107.599 19.1558C107.611 19.2865 107.591 19.4181 107.54 19.5389C107.486 19.657 107.403 19.7592 107.298 19.8358C107.193 19.9125 107.071 19.961 106.942 19.9767C106.77 20.0017 106.595 19.965 106.447 19.873L105.182 18.6518L100.583 14.1125C99.7605 13.2049 99.1457 12.1288 98.7811 10.9589C98.4165 9.78906 98.3107 8.55364 98.4712 7.33867C98.6317 6.12371 99.0546 4.95838 99.7104 3.92383C100.366 2.88928 101.239 2.01037 102.269 1.34828C103.298 0.686191 104.459 0.25684 105.671 0.0901185C106.883 -0.0766033 108.117 0.0233103 109.286 0.382903C110.456 0.742496 111.533 1.35313 112.443 2.17228C113.353 2.99144 114.073 3.99944 114.555 5.1261" fill="white"/>
<path d="M112.484 6.0595C112.95 7.17544 113.072 8.405 112.837 9.59113C112.601 10.7773 112.018 11.8661 111.162 12.7187C111.063 12.7793 110.953 12.8188 110.838 12.8347C110.723 12.8505 110.606 12.8424 110.495 12.8108C110.389 12.7674 110.293 12.7032 110.212 12.6221C110.131 12.541 110.067 12.4446 110.023 12.3385C109.782 11.555 110.725 11.1864 110.909 10.5527C111.275 9.84899 111.454 9.0624 111.428 8.26915C111.402 7.47589 111.171 6.70286 110.759 6.02494C110.313 5.3146 109.676 4.74445 108.922 4.37974C108.167 4.01504 107.326 3.8705 106.493 3.96267C105.736 4.05522 105.015 4.33712 104.395 4.78241C103.776 5.22771 103.278 5.82206 102.948 6.51068C102.618 7.19931 102.467 7.96006 102.507 8.72283C102.548 9.48559 102.78 10.2258 103.181 10.8753L103.607 11.4283L109.253 17.0621C109.375 17.2323 109.432 17.4408 109.414 17.6497C109.389 17.7786 109.335 17.8999 109.255 18.0039C109.175 18.1079 109.072 18.1918 108.954 18.2488C108.826 18.2922 108.69 18.3054 108.557 18.2875C108.423 18.2695 108.295 18.2207 108.184 18.1451L102.434 12.4422C101.851 11.7889 101.417 11.0164 101.162 10.1783C100.907 9.34017 100.837 8.4565 100.958 7.58867C101.078 6.72083 101.385 5.88962 101.858 5.15275C102.332 4.41589 102.959 3.79103 103.698 3.32157C104.436 2.85211 105.268 2.54931 106.134 2.43418C107.001 2.31905 107.883 2.39436 108.718 2.65488C109.553 2.9154 110.321 3.35488 110.97 3.94281C111.618 4.53074 112.131 5.25302 112.473 6.0595" fill="white"/>
<path d="M110.139 6.77359C110.435 7.36636 110.566 8.02842 110.518 8.68962C110.469 9.35083 110.243 9.98656 109.863 10.5294C109.656 10.7944 109.403 11.1631 109.012 11.1285C108.877 11.1268 108.744 11.0897 108.627 11.021C108.51 10.9524 108.413 10.8544 108.345 10.7368C108.058 10.276 108.437 9.83818 108.702 9.49255C108.88 9.17618 108.974 8.819 108.974 8.45566C108.974 8.09231 108.88 7.73513 108.702 7.41877C108.499 7.0712 108.2 6.79027 107.84 6.61024C107.481 6.43021 107.077 6.35886 106.678 6.40491C106.325 6.45837 105.991 6.60051 105.707 6.81807C105.424 7.03563 105.2 7.32155 105.056 7.64919C104.917 7.97786 104.865 8.33661 104.903 8.69144C104.941 9.04628 105.069 9.38547 105.275 9.67689L105.666 10.1032L110.979 15.3568C111.051 15.4613 111.098 15.5814 111.116 15.7074C111.134 15.8334 111.122 15.9619 111.082 16.0826C111.037 16.2039 110.964 16.3125 110.867 16.3988C110.771 16.4851 110.655 16.5466 110.53 16.578C110.395 16.6111 110.254 16.606 110.122 16.5633C109.99 16.5206 109.872 16.4419 109.783 16.336L104.228 10.7829C103.81 10.2933 103.533 9.69932 103.426 9.06427C103.319 8.42923 103.385 7.77691 103.619 7.17682C103.861 6.52833 104.285 5.96398 104.84 5.55201C105.396 5.14004 106.059 4.8981 106.748 4.85544C107.438 4.81279 108.125 4.97124 108.727 5.31165C109.329 5.65206 109.819 6.15984 110.139 6.77359Z" fill="white"/>
<path d="M34.3893 5.97902C34.5618 6.29008 34.6193 6.64724 34.7918 6.94678L34.8493 6.9007C35.2173 4.59649 33.9523 1.39365 36.7353 0.518047C37.2044 0.397348 37.6955 0.390841 38.1676 0.499069C38.6397 0.607298 39.0792 0.827121 39.4492 1.14018C40.5992 2.06187 40.1507 3.53656 40.3002 4.873L40.3922 12.8456C40.4159 13.2523 40.5507 13.6448 40.7819 13.98C41.0131 14.3153 41.3318 14.5804 41.7032 14.7465C42.0699 14.8925 42.4588 14.9743 42.8531 14.9885L42.9221 14.7465V2.67248C42.9984 2.28989 43.1533 1.92738 43.3771 1.60804C43.6008 1.2887 43.8884 1.0195 44.2216 0.817594C44.5575 0.624914 44.9318 0.509452 45.3177 0.479563C45.7035 0.449674 46.0912 0.506108 46.4526 0.644778C46.8654 0.787183 47.2346 1.03372 47.5246 1.36063C47.8147 1.68754 48.0158 2.08379 48.1086 2.51119L48.2121 4.12413V14.8272C48.5372 14.9007 48.8748 14.8995 49.1994 14.8237C49.5241 14.7478 49.8273 14.5994 50.0865 14.3894C50.88 13.8018 50.5235 12.6843 50.6155 11.8547V2.56879C50.6734 2.13624 50.8399 1.72546 51.0993 1.37488C51.3588 1.02429 51.7027 0.745349 52.099 0.564131C52.5252 0.367134 52.9927 0.276793 53.4615 0.300875C53.9302 0.324958 54.3861 0.462743 54.7899 0.702383C56.1124 1.48581 56.0089 3.00659 56.0089 4.37759H56.0779C56.4435 3.43191 57.025 2.58509 57.7759 1.9049C58.5267 1.22471 59.426 0.730029 60.4019 0.460442C62.6938 0.222952 65.0008 0.165171 67.3017 0.287626C67.7519 0.312143 68.1866 0.460643 68.5579 0.716773C68.9292 0.972902 69.2227 1.32673 69.4062 1.73928C69.4062 1.84297 69.4867 1.93513 69.5327 2.05034C69.7114 1.61752 69.9868 1.2315 70.3376 0.921935C70.6885 0.612367 71.1055 0.387492 71.5567 0.264584C72.0858 0.146874 72.6383 0.194162 73.1399 0.400103C73.6414 0.606043 74.0681 0.960778 74.3626 1.41669L74.7536 2.29229L75.0066 13.5599C75.1205 13.995 75.3961 14.3701 75.7771 14.6083L76.5591 14.7811H81.527L81.596 14.5507L81.4695 2.92594C81.4731 2.32567 81.6148 1.73431 81.8835 1.19779C82.2749 0.750776 82.7885 0.428507 83.3608 0.270838C83.9331 0.11317 84.5389 0.127017 85.1034 0.310668C85.5206 0.462784 85.8945 0.714269 86.193 1.04344C86.4915 1.3726 86.7057 1.76958 86.8169 2.20012V4.74627L86.9434 13.3179C86.9708 13.5772 87.0564 13.827 87.1938 14.0485C87.3312 14.2699 87.5169 14.4574 87.7369 14.5968L88.3809 14.7811H93.1648C93.7859 14.9163 94.3326 15.2828 94.6943 15.8065C95.0359 16.3901 95.1428 17.0822 94.9933 17.742C94.9035 18.0334 94.7552 18.3033 94.5574 18.5351C94.3596 18.7669 94.1166 18.9558 93.8433 19.09C91.827 19.3561 89.7896 19.4256 87.7599 19.2973C86.0745 19.3118 84.4321 18.7647 83.091 17.742C82.9002 18.1839 82.5948 18.5665 82.2066 18.8501C81.8183 19.1338 81.3613 19.3081 80.883 19.3549C77.9046 19.2282 74.5811 19.8619 72.0167 18.5945C69.0497 17.0968 69.5097 13.5253 69.3832 10.7948C67.8997 13.099 64.7833 11.7741 62.4833 12.258C62.2779 12.321 62.0879 12.4262 61.9255 12.5671C61.7631 12.708 61.6319 12.8813 61.5403 13.076C61.484 13.2679 61.4682 13.4694 61.494 13.6678C61.5197 13.8662 61.5864 14.057 61.6898 14.2281C61.9848 14.5578 62.3985 14.7567 62.8398 14.7811C64.4268 14.7811 66.1978 14.7811 67.7042 14.7811C68.372 14.9363 68.9511 15.3506 69.3142 15.9332C69.5219 16.3322 69.6127 16.7819 69.5761 17.2305C69.5394 17.679 69.3769 18.1079 69.1072 18.4678C67.9572 19.7236 65.9678 19.2167 64.3463 19.3434C61.9658 19.3434 59.3324 19.5623 57.6764 17.6383C56.9354 16.8901 56.3869 15.9729 56.0779 14.9654C55.8019 15.3571 55.7904 16.1175 55.5259 16.6014C54.376 18.9056 52.007 19.5162 49.6955 19.6314C48.153 19.6735 46.6468 19.1582 45.4521 18.1798C43.7271 20.0232 40.6337 19.8273 38.5522 18.9171C37.7159 18.5576 36.9753 18.0065 36.3901 17.3082C35.805 16.6099 35.3914 15.7838 35.1828 14.8963C34.9988 14.1935 35.0448 13.364 34.9183 12.6727C34.6653 13.0645 34.6193 13.6059 34.3548 14.0207C33.6225 15.6357 32.4824 17.0314 31.047 18.0699C29.6116 19.1084 27.9306 19.7538 26.17 19.9423C24.4095 20.1308 22.6303 19.8558 21.0083 19.1446C19.3862 18.4335 17.9774 17.3107 16.9211 15.8871C15.6378 14.0807 14.9503 11.9175 14.9546 9.70031C14.3307 10.5871 13.4876 11.2964 12.5079 11.7589C11.5283 12.2214 10.4456 12.4211 9.36571 12.3386L5.65128 12.4538L5.55928 12.6612V17.6153C5.46823 18.0426 5.2782 18.4425 5.00454 18.7827C4.73087 19.1229 4.38123 19.3939 3.9838 19.5738C3.54411 19.7476 3.06922 19.8132 2.59899 19.7651C2.12876 19.717 1.67691 19.5566 1.28135 19.2973C0.903578 19.0062 0.601699 18.6278 0.401457 18.1945C0.201215 17.7612 0.108552 17.2857 0.131369 16.8088L0.00487072 3.74394C-0.0273295 3.16543 0.100601 2.58926 0.374548 2.07898C0.648496 1.5687 1.05781 1.14414 1.55734 0.852157C3.12132 0.137853 4.99579 0.644778 6.75526 0.414358C9.36571 0.414358 12.1257 -0.0580048 13.9886 1.9697C15.0078 2.91447 15.6869 4.16999 15.9206 5.54122C16.5632 4.46001 17.3356 3.46176 18.2206 2.56879C19.4209 1.50655 20.8533 0.741344 22.4026 0.334723C23.9519 -0.0718981 25.5748 -0.108587 27.1408 0.227608C28.7068 0.563802 30.1723 1.2635 31.4192 2.27042C32.6661 3.27733 33.6598 4.56337 34.3203 6.0251L34.3893 5.97902ZM69.2337 3.72089C68.961 4.08775 68.6013 4.38076 68.1872 4.57345C66.4278 5.13798 64.3578 4.68866 62.4373 4.95365L61.8508 5.33384C61.6974 5.4806 61.5802 5.66107 61.5083 5.86101C61.4365 6.06096 61.412 6.2749 61.4368 6.48594C61.47 6.68828 61.5442 6.88164 61.655 7.05406C61.7658 7.22647 61.9107 7.37426 62.0808 7.48827C64.3808 8.20258 67.8307 6.4629 69.2682 8.97449C69.4062 7.23481 69.3717 5.34536 69.3027 3.72089H69.2337ZM22.648 5.27623C20.578 6.73941 20.4515 9.48141 20.8885 11.8547C21.0281 12.5922 21.3556 13.2809 21.8392 13.8542C22.3227 14.4275 22.946 14.8658 23.6485 15.1267C24.4949 15.4266 25.4123 15.4615 26.279 15.2269C27.1457 14.9924 27.9208 14.4994 28.5014 13.8133C29.1358 12.6987 29.4847 11.444 29.5168 10.1613C29.5489 8.87862 29.2633 7.60795 28.6854 6.4629C28.0234 5.52664 27.0273 4.88126 25.9035 4.66037C24.7796 4.43948 23.614 4.65998 22.648 5.27623ZM9.36571 5.12646C8.09166 4.94708 6.79883 4.94708 5.52478 5.12646C5.63978 6.0251 5.44428 6.94678 5.59378 7.82238H8.98622C9.18545 7.80877 9.37872 7.74852 9.55049 7.64647C9.72225 7.54442 9.86772 7.40343 9.9752 7.23481C10.0947 7.02958 10.1698 6.80145 10.1956 6.56524C10.2213 6.32904 10.1972 6.09005 10.1247 5.86381C9.96807 5.53485 9.69873 5.27318 9.36571 5.12646ZM56.2159 8.58277V11.6013C56.4459 11.0368 56.8254 10.5298 57.0324 9.9653L56.2159 8.58277Z" fill="white"/>
<path d="M165.74 13.5598V7.79924C165.797 6.2276 166.326 4.70975 167.258 3.44429C167.931 2.4814 168.826 1.69568 169.867 1.15406C170.908 0.612443 172.065 0.330968 173.238 0.333612C174.41 0.298092 175.574 0.530757 176.642 1.0139C177.71 1.49704 178.654 2.21793 179.402 3.1217C180.438 4.44166 181.037 6.05272 181.115 7.73012V17.1428C181.098 17.8224 180.816 18.4683 180.331 18.9435C179.846 19.4188 179.195 19.6862 178.517 19.689C178.183 19.7282 177.845 19.6938 177.526 19.5882C177.208 19.4827 176.916 19.3085 176.672 19.0779C176.427 18.8474 176.236 18.566 176.112 18.2536C175.988 17.9412 175.933 17.6053 175.952 17.2695V15.1957C175.952 14.8732 175.837 14.6427 175.446 14.6427H171.674C171.318 14.6427 171.042 14.8156 171.042 15.1727V17.2695C171.021 17.9462 170.74 18.5887 170.258 19.0631C169.776 19.5375 169.13 19.8071 168.454 19.8157C167.773 19.7866 167.124 19.5137 166.626 19.0466C166.128 18.5795 165.814 17.949 165.74 17.2695C165.74 16.5207 165.74 14.1243 165.74 13.5713V13.5598ZM173.215 10.115H175.515C175.929 10.115 175.895 9.73478 175.895 9.51588C175.927 8.76806 175.881 8.01886 175.757 7.2808C175.544 6.51401 175.04 5.86084 174.354 5.46047C173.981 5.29697 173.572 5.23536 173.168 5.28191C172.764 5.32846 172.379 5.48151 172.054 5.72546C171.548 6.09269 171.196 6.63438 171.065 7.24623C170.983 8.01139 170.952 8.78118 170.973 9.55044C170.978 9.62466 170.999 9.69701 171.033 9.7633C171.066 9.8296 171.113 9.88853 171.17 9.93672C171.226 9.98491 171.292 10.0214 171.363 10.0441C171.434 10.0668 171.508 10.0752 171.582 10.0689L173.215 10.115Z" fill="white"/>
<path d="M205.852 13.5595V7.79899C205.892 6.23349 206.4 4.7162 207.312 3.44404C207.983 2.47974 208.878 1.69297 209.92 1.15118C210.961 0.609396 212.118 0.328767 213.292 0.333358C214.469 0.294247 215.639 0.525113 216.713 1.00832C217.788 1.49153 218.737 2.21431 219.49 3.12145C220.522 4.44282 221.117 6.05376 221.192 7.72986V17.1425C221.174 17.8201 220.895 18.4643 220.412 18.9393C219.929 19.4143 219.281 19.683 218.605 19.6887C218.263 19.7292 217.917 19.6947 217.591 19.5878C217.264 19.4809 216.964 19.3039 216.713 19.0694C216.461 18.8348 216.263 18.5481 216.133 18.2293C216.003 17.9105 215.944 17.5672 215.96 17.2232V15.1494C215.96 14.8268 215.856 14.5964 215.465 14.5964H211.693C211.325 14.5964 211.049 14.7692 211.049 15.1264V17.2693C211.032 17.9449 210.754 18.5874 210.273 19.0621C209.793 19.5367 209.148 19.8067 208.474 19.8154C207.807 19.7675 207.18 19.486 206.7 19.0204C206.221 18.5547 205.92 17.9348 205.852 17.2693C205.852 16.5204 205.852 14.124 205.852 13.571V13.5595ZM213.315 10.1147H215.615C216.029 10.1147 216.006 9.73452 216.006 9.51562C216.039 8.76781 215.992 8.01861 215.868 7.28054C215.654 6.51065 215.146 5.85641 214.453 5.46022C214.081 5.29672 213.672 5.2351 213.268 5.28165C212.864 5.3282 212.479 5.48125 212.153 5.7252C211.644 6.0912 211.288 6.6328 211.153 7.24598C211.08 8.01172 211.053 8.78119 211.072 9.55019C211.077 9.62497 211.096 9.69811 211.129 9.76517C211.163 9.83222 211.209 9.8918 211.266 9.94028C211.323 9.98876 211.39 10.0251 211.461 10.0472C211.532 10.0693 211.608 10.0766 211.682 10.0686L213.315 10.1147Z" fill="white"/>
<path d="M196.18 6.99293C196.18 6.01364 196.099 5.24173 195.202 5.24173H192.592C192.143 5.26263 191.699 5.15159 191.313 4.9223C190.926 4.69301 190.615 4.3555 190.418 3.95137C190.224 3.49241 190.156 2.98988 190.221 2.49569C190.286 2.0015 190.481 1.53357 190.786 1.14024C191.593 0.512082 192.611 0.222858 193.627 0.33377H204.701C205.174 0.269745 205.654 0.344537 206.085 0.549061C206.516 0.753585 206.878 1.07904 207.128 1.48587C207.333 1.93425 207.429 2.42535 207.407 2.91831C207.385 3.41127 207.246 3.89184 207.001 4.32005C206.768 4.66925 206.438 4.94254 206.052 5.1063C205.666 5.27006 205.24 5.31713 204.828 5.24173C203.528 5.24173 203.275 5.24173 202.723 5.24173C201.746 5.24173 201.573 5.62192 201.573 6.93532V16.4287C201.624 16.9811 201.546 17.5378 201.347 18.0554C201.147 18.5729 200.831 19.0374 200.423 19.4126C199.959 19.6591 199.44 19.7831 198.915 19.773C198.39 19.7629 197.876 19.6191 197.422 19.355C196.989 19.0128 196.654 18.5616 196.452 18.0475C196.25 17.5334 196.188 16.9747 196.272 16.4287V6.99293" fill="white"/>
<path d="M146.271 0.355959C146.771 0.2994 147.277 0.376176 147.737 0.578503C148.197 0.780831 148.596 1.10152 148.893 1.50806C149.058 1.88581 149.144 2.29379 149.144 2.70625C149.144 3.11871 149.058 3.52669 148.893 3.90444C148.601 4.34004 148.2 4.69082 147.729 4.92141C147.259 5.152 146.736 5.25425 146.214 5.21784H142.419C142.264 5.20154 142.107 5.22014 141.96 5.27228C141.813 5.32441 141.68 5.40877 141.57 5.51918C141.459 5.6296 141.375 5.76328 141.323 5.91047C141.271 6.05766 141.253 6.21464 141.269 6.36994C141.255 6.52176 141.275 6.6748 141.329 6.81739C141.383 6.95999 141.469 7.08839 141.58 7.19282C141.691 7.29725 141.824 7.37496 141.969 7.42003C142.115 7.46511 142.268 7.47635 142.419 7.45292C143.569 7.45292 145.202 7.45292 146.294 7.45292C146.763 7.42909 147.231 7.51209 147.664 7.69568C148.096 7.87927 148.481 8.15867 148.79 8.51285C149.021 8.96146 149.138 9.46101 149.128 9.96606C149.118 10.4711 148.982 10.9656 148.732 11.4046C148.469 11.7557 148.117 12.0304 147.713 12.2004C147.309 12.3705 146.867 12.4298 146.432 12.3724C145.156 12.3724 143.27 12.3724 142.465 12.3724C142.311 12.3603 142.156 12.3817 142.011 12.4354C141.866 12.489 141.734 12.5734 141.625 12.6829C141.515 12.7924 141.431 12.9244 141.378 13.0697C141.324 13.2149 141.303 13.3701 141.315 13.5245C141.315 14.3079 141.66 14.8379 142.465 14.8379H146.605C147.06 14.8321 147.508 14.9408 147.91 15.1542C148.312 15.3676 148.654 15.6788 148.905 16.0591C149.114 16.4839 149.213 16.9544 149.193 17.4276C149.173 17.9007 149.034 18.3612 148.79 18.7666C148.539 19.0962 148.21 19.3575 147.832 19.5266C147.454 19.6957 147.04 19.7671 146.628 19.7343H141.349C140.157 19.6523 139.021 19.1923 138.106 18.4209C137.305 17.6601 136.681 16.7318 136.278 15.702C135.926 14.4409 135.879 13.1139 136.14 11.8309C136.324 11.3153 136.564 10.821 136.853 10.3562C136.923 10.2699 136.961 10.1621 136.961 10.0509C136.961 9.9397 136.923 9.83188 136.853 9.7456C136.444 9.14007 136.188 8.44435 136.105 7.7179C135.946 6.41365 136.084 5.09025 136.508 3.84683C136.886 2.93316 137.502 2.13756 138.29 1.54263C139.503 0.668479 140.988 0.259631 142.476 0.390522H146.317" fill="white"/>
<path d="M149.744 3.63974C149.744 2.07288 149.836 1.54292 150.526 0.966865C151.468 0.444452 152.55 0.23091 153.619 0.35625C154.102 0.35625 157.587 0.35625 158.346 0.35625C159.234 0.294152 160.125 0.422322 160.96 0.732224C161.794 1.04213 162.554 1.52665 163.187 2.15353C163.954 2.97556 164.535 3.9542 164.889 5.02227C165.109 6.17364 165.038 7.3618 164.682 8.47858C164.359 9.54535 163.722 10.4892 162.854 11.186C162.658 11.3473 162.509 11.4049 162.635 11.6353C162.762 11.8658 164.452 15.2069 164.82 15.9557C164.993 16.3135 165.088 16.7042 165.098 17.1016C165.107 17.499 165.032 17.894 164.877 18.2599C164.6 18.8358 164.121 19.2897 163.532 19.536C162.943 19.7822 162.284 19.8037 161.681 19.5964C160.393 19.2623 159.852 17.8567 159.611 17.3613L157.552 13.2368C157.472 13.0755 157.552 12.8335 156.92 12.8335H155.08C155.08 13.2828 155.08 16.0825 155.08 16.7852C155.132 17.2805 155.054 17.7808 154.852 18.2359C154.65 18.691 154.332 19.0847 153.93 19.3775C153.449 19.6308 152.914 19.7631 152.371 19.7631C151.829 19.7631 151.294 19.6308 150.813 19.3775C150.434 19.0641 150.133 18.6668 149.934 18.217C149.734 17.7671 149.642 17.277 149.663 16.7852V3.62822L149.744 3.63974ZM154.976 7.94861H157.598C158.748 7.94861 158.909 7.74123 159.243 7.43016C159.4 7.20657 159.491 6.94302 159.505 6.66988C159.519 6.39675 159.456 6.12514 159.323 5.88635C158.921 5.19508 158.323 5.22965 157.633 5.24117C157.184 5.24117 155.758 5.24117 154.976 5.24117V7.94861Z" fill="white"/>
<path d="M183.784 17.9255C182.722 16.6939 182.168 15.1043 182.232 13.4783V4.803C182.232 2.97116 182.232 1.57712 183.255 0.85129C183.771 0.505749 184.383 0.332975 185.002 0.357817C185.622 0.38266 186.218 0.603839 186.705 0.989542C187.326 1.6808 187.567 2.34902 187.567 4.77996V12.8447C187.567 13.9968 187.935 14.9646 188.936 14.9646H192.248C192.577 14.9163 192.912 14.9399 193.231 15.0339C193.549 15.1279 193.844 15.2899 194.094 15.5089C194.345 15.7279 194.545 15.9986 194.68 16.3024C194.816 16.6062 194.885 16.9359 194.881 17.2688C194.9 17.5761 194.857 17.8841 194.755 18.1745C194.652 18.4648 194.493 18.7318 194.286 18.9595C194.079 19.1871 193.829 19.371 193.55 19.5001C193.271 19.6292 192.969 19.701 192.662 19.7112H187.935C186.636 19.6402 185.385 19.1918 184.336 18.4209C184.136 18.2655 183.952 18.092 183.784 17.9024" fill="white"/>
<path d="M120.753 4.42311C120.753 3.13276 120.603 2.1189 121.707 1.03593C122.524 0.217934 123.559 0.367708 124.766 0.356187C125.629 0.356187 128.297 0.356187 129.366 0.356187C130.821 0.273766 132.261 0.679142 133.46 1.50829C134.514 2.21992 135.302 3.26111 135.703 4.4692C136.199 5.94557 136.154 7.5507 135.576 8.99696C135.073 10.3447 134.067 11.4437 132.77 12.0616C131.698 12.5879 130.514 12.8487 129.32 12.8219H126.135C126.135 13.8012 126.135 15.7483 126.135 16.5087C126.196 17.0499 126.116 17.5978 125.902 18.0986C125.688 18.5995 125.349 19.0362 124.916 19.3659C124.451 19.6294 123.926 19.7679 123.392 19.7679C122.858 19.7679 122.333 19.6294 121.868 19.3659C121.339 19.0203 120.787 18.2138 120.787 16.5548V4.45767L120.753 4.42311ZM126.158 7.91398H128.803H129.539C129.864 7.86264 130.158 7.68833 130.359 7.42689C130.56 7.16545 130.653 6.83676 130.62 6.50842C130.62 5.25263 129.044 5.26415 129.044 5.26415H126.123L126.158 7.91398Z" fill="white"/>
<path d="M226.241 6.03668C225.999 6.28086 225.712 6.47468 225.395 6.60695C225.078 6.73923 224.738 6.80733 224.395 6.80733C224.052 6.80733 223.712 6.73923 223.395 6.60695C223.079 6.47468 222.791 6.28086 222.55 6.03668C222.308 5.79503 222.118 5.50741 221.99 5.1908C221.861 4.87419 221.797 4.53502 221.802 4.19331C221.797 3.85051 221.862 3.51026 221.992 3.19332C222.123 2.87639 222.316 2.58942 222.561 2.34995C223.05 1.86309 223.712 1.58984 224.401 1.58984C225.09 1.58984 225.752 1.86309 226.241 2.34995C226.487 2.5886 226.681 2.87541 226.812 3.19254C226.942 3.50967 227.006 3.85032 227 4.19331C227.005 4.53611 226.94 4.87636 226.81 5.1933C226.679 5.51023 226.486 5.7972 226.241 6.03668ZM222.791 2.58037C222.579 2.78648 222.412 3.03388 222.299 3.30733C222.186 3.58077 222.131 3.87446 222.136 4.17027C222.136 4.46458 222.196 4.75578 222.31 5.02681C222.425 5.29784 222.592 5.54324 222.803 5.74865C223.23 6.15716 223.799 6.38505 224.389 6.38505C224.98 6.38505 225.549 6.15716 225.976 5.74865C226.188 5.53957 226.354 5.28999 226.467 5.01484C226.58 4.73968 226.636 4.4446 226.632 4.14723C226.637 3.85142 226.581 3.55773 226.469 3.28429C226.356 3.01084 226.188 2.76344 225.976 2.55732C225.549 2.14881 224.98 1.92092 224.389 1.92092C223.799 1.92092 223.23 2.14881 222.803 2.55732L222.791 2.58037ZM224.332 2.73014C224.597 2.71714 224.862 2.75227 225.114 2.83383C225.258 2.88872 225.38 2.98953 225.461 3.12071C225.542 3.25188 225.578 3.40613 225.562 3.55965C225.567 3.67058 225.543 3.78083 225.493 3.87972C225.442 3.97862 225.367 4.06282 225.275 4.12418C225.15 4.19291 225.014 4.23967 224.872 4.26244C224.981 4.27246 225.085 4.30795 225.177 4.36601C225.269 4.42407 225.346 4.50306 225.401 4.59655C225.498 4.72306 225.554 4.87557 225.562 5.03435V5.25325C225.557 5.32228 225.557 5.39159 225.562 5.46062C225.552 5.50999 225.552 5.56103 225.562 5.6104H225.102V5.2302C225.12 5.10595 225.104 4.97918 225.055 4.86348C225.007 4.74779 224.928 4.64754 224.826 4.57351C224.645 4.4967 224.448 4.46507 224.252 4.48134H223.849V5.63344H223.343V2.75318L224.332 2.73014ZM224.884 3.19098C224.691 3.09806 224.477 3.0583 224.263 3.07577H223.838V4.11266H224.297C224.461 4.1193 224.625 4.09588 224.781 4.04354C224.871 4.01087 224.949 3.9491 225 3.86784C225.052 3.78658 225.076 3.69039 225.068 3.59422C225.077 3.52111 225.065 3.44703 225.035 3.38C225.004 3.31298 224.956 3.25558 224.895 3.21402L224.884 3.19098Z" fill="white"/>
</svg>
