<svg width="223" height="22" viewBox="0 0 223 22" fill="none" xmlns="http://www.w3.org/2000/svg">
<g clip-path="url(#clip0_16343_537)">
<path fill-rule="evenodd" clip-rule="evenodd" d="M215.675 16.8691L205.411 6.88917L205.194 6.6995L205.089 6.60754L204.979 6.51558L204.803 6.36615L204.76 6.33166L204.523 6.17073L204.26 6.02244L203.98 5.90175L203.656 5.82129L203.343 5.76956L202.905 5.81554L202.439 5.91899L202.063 6.04429L201.801 6.21557L201.583 6.39948L201.355 6.58225L201.131 6.76042L193.931 14.0873L194.107 14.3735L194.302 14.6482L194.512 14.9115L194.735 15.1586L194.978 15.3989L195.231 15.6219L195.497 15.8345L195.772 16.0299L196.062 16.2012L196.362 16.3621L196.667 16.5116L196.986 16.6369L197.31 16.7461L197.637 16.8656H215.675V16.8691ZM216.041 18.5726L216.527 18.5841L216.993 18.6301L217.389 18.7393L217.707 18.9232L217.973 19.1577L218.225 19.4106L219.719 21.1233H183.855L183.397 21.0658L182.992 20.975L182.645 20.8141L182.359 20.6015L182.131 20.3267L181.94 20.0221L181.789 19.6784L181.693 19.2818L181.651 18.8577V11.2802L182.03 11.1768L182.402 11.0607L182.778 10.9354L183.143 10.7974L183.504 10.6491L183.857 10.4825L184.209 10.2986L184.548 10.1158L184.89 9.90888L185.213 9.70197L185.537 9.47897L185.846 9.24332L186.151 8.99733L186.446 8.74444L186.732 8.47546L187.007 8.19959L187.273 7.92486L187.531 7.62714L187.778 7.32367L188.692 6.2397L189.591 5.13389L189.991 4.6695L190.419 4.23384L190.867 3.82118L191.342 3.43149L191.837 3.07056L192.346 2.7326L192.88 2.42913L193.427 2.15441L193.988 1.90152L194.563 1.68886L195.154 1.4992L195.749 1.34977L196.353 1.22332L196.961 1.13826L197.576 1.08078L198.193 1.05664L198.808 1.06929L199.421 1.11986L202.405 4.11774L201.952 3.92807L201.494 3.77405L201.028 3.6476L200.558 3.5384L200.082 3.45793L199.596 3.40621L199.115 3.38321H198.626L198.14 3.41195L197.659 3.46943L197.179 3.55564L196.708 3.65909L196.323 3.78439L195.951 3.91083L195.595 4.06601L195.266 4.23269L194.933 4.40971L194.6 4.57639L194.29 4.7764L194.019 4.9994L193.749 5.25804L193.483 5.52701L193.235 5.80175L193.002 6.09372L192.779 6.39833L192.565 6.7018L192.37 7.02365L192.184 7.34436L192.013 7.67657L191.861 8.01451L191.723 8.35822L191.599 8.70881L191.495 9.06975L191.4 9.42495L191.324 9.79163L191.262 10.1595L191.215 10.5262L191.195 10.9158L191.19 11.2998L191.209 11.6894L191.252 12.0734L191.31 12.4642L191.39 12.8366L191.49 13.2137L191.61 13.5861L191.743 13.947L191.9 14.3034L192.076 14.6413L192.265 14.9678L192.47 15.2885L192.699 15.5931L192.932 15.8908L193.189 16.1725L193.455 16.4403L193.736 16.6989L194.031 16.9403L194.335 17.1633L194.653 17.376L194.977 17.5771L195.32 17.7542L195.663 17.9208L196.015 18.0645L196.376 18.1956L196.742 18.3048L197.118 18.3967L197.494 18.4703L197.87 18.5278L198.25 18.5623L198.635 18.5737L216.041 18.5726Z" fill="white"/>
<path d="M33.9604 1.0588C33.9604 0.412789 33.9604 -0.234375 35.2619 -0.234375C36.5634 -0.234375 36.5634 0.412789 36.5634 1.0588V18.3851L35.8878 18.7541C33.9985 19.7852 32.0654 20.4737 30.0338 20.5611C27.9641 20.6507 25.8331 20.1231 23.6026 18.715L22.9976 18.3334V1.16225C22.9976 0.516239 22.9976 -0.130925 24.2991 -0.130925C25.6006 -0.130925 25.6006 0.516239 25.6006 1.16225V16.8896C27.1138 17.7195 28.5438 18.0345 29.9193 17.9747C31.2833 17.9161 32.6253 17.4919 33.9581 16.8413V1.0588H33.9604ZM88.7606 5.41422C88.7953 6.06024 88.8311 6.70625 87.5285 6.77177C86.2269 6.83844 86.1911 6.19243 86.1564 5.54642L86.0719 4.01529C84.9763 3.38652 83.8807 2.97845 82.725 2.90948C81.5345 2.83821 80.2365 3.12214 78.7441 3.8877L78.7522 7.71206L87.9392 11.0571L88.7918 11.3674L88.7941 12.2698L88.8091 17.7805L88.8103 18.4644L88.2284 18.8518C86.3635 20.0944 84.1723 20.8703 81.9209 20.8611C79.8998 20.8542 77.844 20.2266 75.9444 18.761L75.4377 18.3678L75.4411 17.7333L75.4562 15.4941C75.4608 14.8481 75.4654 14.2009 76.7669 14.2055C78.0685 14.2113 78.065 14.8573 78.0604 15.5045L78.0499 17.0804C79.3075 17.908 80.6287 18.269 81.9209 18.2736C83.4157 18.2805 84.8884 17.823 86.2026 17.0689L86.1922 13.1721L77.0041 9.82827L76.1515 9.51676L76.1492 8.61441L76.1364 3.13018L76.1353 2.39566L76.782 2.01748C79.046 0.695563 81.0278 0.210472 82.8765 0.320823C84.7288 0.431174 86.3924 1.13237 88.0363 2.18415L88.6009 2.54395L88.6368 3.2049L88.7606 5.41422ZM109.233 1.87954C109.233 1.23352 109.233 0.586359 110.535 0.586359C111.837 0.586359 111.837 1.23352 111.837 1.87954V18.1345L119.928 18.1724C120.578 18.1747 121.23 18.1782 121.224 19.4714C121.219 20.7657 120.568 20.7622 119.917 20.7588L110.529 20.7163L109.232 20.7105V1.87954H109.233Z" fill="white"/>
<path fill-rule="evenodd" clip-rule="evenodd" d="M198.865 11.6076L202.59 7.69814L202.885 7.4395L203.27 7.3418L203.651 7.41652L203.966 7.65791L207.838 11.4064H206.578L206.205 11.4179L205.887 11.442L205.607 11.4984L205.36 11.6306L205.159 11.8145L204.97 12.0202L204.774 12.226L204.569 12.4202L204.369 12.6214L204.221 12.7651L204.112 12.8628L203.993 12.9605L203.903 12.9881L203.78 12.9835L203.698 12.926L203.613 12.7892L203.576 12.6559L203.546 12.4674L203.537 12.3065V11.211L203.522 10.9248L203.498 10.742L203.47 10.5523L203.413 10.4385L203.308 10.3121L203.204 10.2719L203.042 10.2776L202.928 10.3178L202.795 10.4086L202.705 10.4949L202.571 10.6615L202.385 10.8742L202.186 11.0799L201.966 11.2627L201.728 11.4064L201.468 11.4984L201.181 11.5489L200.852 11.5846L198.865 11.6076Z" fill="white"/>
<path d="M16.9458 2.80278C16.9504 2.90048 16.9504 3.00049 16.9493 3.10165L16.8451 17.5772L16.8428 18.0163L18.761 19.9291C19.2203 20.3866 19.6796 20.8452 18.7598 21.7556C17.8389 22.6648 17.3796 22.2073 16.9203 21.7487L14.6204 19.4566C13.2171 20.0532 11.7814 20.4164 10.2948 20.459C8.23084 20.5187 6.10677 19.9635 3.88436 18.5612L3.2793 18.1784V3.25223C3.2793 2.98899 3.2793 2.72805 3.36606 2.50965C3.35797 2.05445 3.72355 1.81766 4.08913 1.58316C6.29303 0.170436 8.39744 -0.35833 10.4405 -0.26867C12.4454 -0.180159 14.3543 0.50954 16.2204 1.54408C16.6947 1.80617 17.1668 2.0694 16.9458 2.80278ZM9.87943 14.7311C9.42014 14.2736 8.96085 13.8149 9.88059 12.9057C10.8003 11.9953 11.2608 12.4528 11.7201 12.9114L14.256 15.4391L14.3428 3.47063C13.0181 2.80738 11.6842 2.37746 10.3272 2.31769C8.91341 2.25561 7.44299 2.60161 5.88233 3.51546V16.7335C7.4025 17.5726 8.84053 17.9105 10.2219 17.8703C11.0324 17.8419 11.8348 17.6994 12.6051 17.4473L9.87943 14.7311ZM50.9391 17.7347C51.5904 17.7347 52.2406 17.7347 52.2406 19.029C52.2406 20.3222 51.5904 20.3222 50.9391 20.3222H42.6834C42.0321 20.3222 41.3807 20.3222 41.3807 19.029C41.3807 17.7347 42.0321 17.7347 42.6834 17.7347H45.6139V2.77634H43.2075C42.5573 2.77634 41.9048 2.77634 41.9048 1.48316C41.9048 0.18883 42.5562 0.188831 43.2075 0.188831H50.7297C51.3799 0.188831 52.0312 0.18883 52.0312 1.48316C52.0312 2.77634 51.3799 2.77634 50.7297 2.77634H48.218V17.7358H50.9391V17.7347ZM71.1189 18.2382C71.5805 18.6945 72.0421 19.152 71.1259 20.0658C70.2096 20.9808 69.7492 20.5233 69.2876 20.0681L60.6328 11.5079C60.5161 11.576 60.3834 11.6123 60.2481 11.6131C60.1128 11.6139 59.9797 11.5792 59.8623 11.5125V19.0497C59.8623 19.6957 59.8623 20.344 58.5608 20.344C57.2581 20.344 57.2581 19.6969 57.2581 19.0497V1.24982C57.2581 0.603802 57.2581 -0.0433617 58.5608 -0.0433617C59.8623 -0.0433617 59.8623 0.602653 59.8623 1.24982V8.75139L68.7889 0.415279C69.2633 -0.0272752 69.7376 -0.470974 70.6284 0.469311C71.5192 1.40959 71.0437 1.85215 70.5694 2.2947L62.5613 9.77444L71.1189 18.2382ZM103.177 18.0485C103.828 18.0485 104.479 18.0485 104.479 19.3428C104.479 20.636 103.828 20.636 103.177 20.636H94.9199C94.2697 20.636 93.6184 20.636 93.6184 19.3428C93.6184 18.0485 94.2686 18.0485 94.9199 18.0485H97.8515V3.089H95.4451C94.7938 3.089 94.1425 3.089 94.1425 1.79582C94.1425 0.502645 94.7926 0.502645 95.4451 0.502645H102.966C103.617 0.502645 104.268 0.502645 104.268 1.79582C104.268 3.089 103.617 3.089 102.966 3.089H100.456V18.0485H103.177ZM122.023 2.09929C121.86 1.47397 121.698 0.84749 122.954 0.523333C124.21 0.199177 124.373 0.826798 124.537 1.45212L128.865 18.0784L133.676 1.61305C133.858 0.991174 134.038 0.370452 135.287 0.729093C136.531 1.08773 136.351 1.70961 136.169 2.33033L130.837 20.5762L130.497 20.8486H127.143L126.847 20.6337L122.023 2.09929ZM147.809 9.27441C148.459 9.27441 149.112 9.27441 149.112 10.5676C149.112 11.8608 148.46 11.8608 147.809 11.8608H143.191L143.112 18.3956L151.187 18.4324C151.837 18.4359 152.489 18.4382 152.484 19.7325C152.478 21.0257 151.828 21.0234 151.177 21.0199L141.788 20.9774L140.476 20.9705L140.491 19.6681L140.702 2.38206L140.718 1.09463L142.009 1.10382L150.035 1.16015C150.685 1.16475 151.336 1.16934 151.331 2.46252C151.326 3.7557 150.676 3.75226 150.024 3.74766L143.291 3.70053L143.223 9.27441H147.809ZM159.066 11.447C159.533 11.4527 159.984 11.4711 160.443 11.486C162.697 11.5631 165.199 11.6493 166.988 10.6009L167.049 4.48218C165.992 3.40626 162.3 3.52581 159.09 3.68329L159.066 11.447ZM169.512 18.9899C169.964 19.4566 170.412 19.9233 169.478 20.8188C168.541 21.7131 168.091 21.2464 167.641 20.7797L161.206 14.1L160.362 14.0735C159.928 14.0571 159.493 14.0444 159.057 14.0356L159.039 20.0417C159.037 20.6877 159.034 21.3349 157.733 21.3349C156.43 21.3349 156.432 20.6889 156.435 20.0417L156.49 2.45218L156.494 1.21762L157.73 1.159L158.384 1.12682H158.389C162.635 0.914162 167.9 0.649777 169.489 3.44534L169.66 3.74651L169.657 4.08676L169.585 11.2929L169.579 11.9113L169.081 12.2987C167.757 13.3287 166.246 13.7942 164.694 13.9908L169.512 18.9899Z" fill="white"/>
</g>
<defs>
<clipPath id="clip0_16343_537">
<rect width="223" height="22" fill="white"/>
</clipPath>
</defs>
</svg>
