<svg width="142" height="32" viewBox="0 0 142 32" fill="none" xmlns="http://www.w3.org/2000/svg">
<g clip-path="url(#clip0_16316_623)">
<path d="M66.1509 31.4924V17.3125C66.1509 14.3415 64.7811 12.8561 62.0416 12.8561C61.2058 12.8632 60.39 13.1058 59.6932 13.5542C59.024 13.9345 58.4764 14.4876 58.1116 15.1522V31.4924H52.6698V16.487C52.6698 15.375 52.3144 14.4908 51.6037 13.8344C50.893 13.1779 49.8924 12.8504 48.6021 12.8518C47.9205 12.8518 47.1777 13.0987 46.3738 13.5924C45.6675 13.9938 45.0687 14.5515 44.6261 15.2201V31.4924H39.1865V8.85801H42.9265L44.0363 10.8443C45.5437 9.23716 47.4938 8.43359 49.8866 8.43359C52.9727 8.43359 55.3029 9.25131 56.8773 10.8867C57.6596 10.0749 58.6346 9.46143 59.7173 9.09993C60.8834 8.66539 62.1209 8.43963 63.3699 8.43359C65.9652 8.43359 67.9844 9.15582 69.4277 10.6003C70.871 12.0447 71.5919 14.0253 71.5905 16.5422V31.4924H66.1509Z" fill="#161C1E"/>
<path d="M75.9847 31.4915V13.1883H73.0049V8.85713H81.4854V31.4915H75.9847ZM78.7897 0.0843426C79.2047 0.0780517 79.6167 0.154672 80 0.309452C80.3833 0.464231 80.7298 0.693867 81.0179 0.984115C81.316 1.26445 81.5518 1.60114 81.7107 1.97343C81.8697 2.34571 81.9484 2.74568 81.942 3.14866C81.9486 3.55198 81.8699 3.95232 81.711 4.32497C81.5521 4.69762 81.3162 5.03468 81.0179 5.31533C80.7258 5.60047 80.3786 5.82674 79.9962 5.98113C79.6138 6.13552 79.2038 6.215 78.7897 6.215C78.3755 6.215 77.9655 6.13552 77.5831 5.98113C77.2007 5.82674 76.8535 5.60047 76.5614 5.31533C76.2631 5.03468 76.0273 4.69762 75.8683 4.32497C75.7094 3.95232 75.6308 3.55198 75.6373 3.14866C75.6309 2.74568 75.7096 2.34571 75.8686 1.97343C76.0275 1.60114 76.2633 1.26445 76.5614 0.984115C76.8495 0.693867 77.196 0.464231 77.5793 0.309452C77.9626 0.154672 78.3746 0.0780517 78.7897 0.0843426Z" fill="#161C1E"/>
<path d="M100.74 31.4924V18.4117C100.74 16.4806 100.359 15.0715 99.5974 14.1845C98.8357 13.2975 97.5927 12.8532 95.8683 12.8518C94.9756 12.8755 94.1007 13.1 93.3123 13.5075C92.4856 13.8832 91.7602 14.4404 91.1933 15.1352V31.4924H85.7559V8.85801H89.6706L90.6712 10.9801C92.1494 9.28244 94.334 8.43359 97.2249 8.43359C99.9921 8.43359 102.177 9.2407 103.779 10.8549C105.381 12.4691 106.182 14.72 106.182 17.6075V31.4924H100.74Z" fill="#161C1E"/>
<path d="M110.381 13.1062H107.683V8.86199H110.381V4.24854L115.816 2.30469V8.85775H122.21V13.102H115.816V23.0143C115.816 24.6356 116.077 25.7801 116.598 26.4479C117.119 27.1156 118.033 27.453 119.34 27.4601C120.635 27.4621 121.903 27.1011 122.992 26.4203V31.2799C121.732 31.7043 119.934 31.9165 117.598 31.9165C115.262 31.9165 113.48 31.2799 112.251 30.0066C111.002 28.7334 110.379 26.919 110.381 24.5634V13.1062Z" fill="#161C1E"/>
<path d="M19.5165 7.57265L13.2991 14.1979L3.4248 0.22168H14.3215L19.5165 7.57265Z" fill="#161C1E"/>
<path d="M36.4161 31.492H25.5194L21.7881 26.2122C24.1342 24.4594 26.1834 22.3607 27.8612 19.9923C27.9333 19.8904 28.0054 19.7801 28.0797 19.6846L36.4161 31.492Z" fill="#161C1E"/>
<path d="M8.35701 23.0051L25.8555 18.6123C24.3446 20.7499 22.5023 22.6476 20.3941 24.238C15.8829 27.6737 9.37066 30.5067 0.000976562 31.9179L8.35701 23.0051Z" fill="#161C1E"/>
<path d="M29.9299 8.40527C29.5424 10.9393 28.757 13.4005 27.6012 15.7032L11.3828 19.7755L19.6296 10.99L29.9299 8.40527Z" fill="#161C1E"/>
<path d="M30.1962 5.87096L22.6572 7.76388L29.8642 0.0839844C29.8642 0.0839844 30.3972 2.43103 30.1962 5.87096Z" fill="#161C1E"/>
<path d="M131.888 2.14746V8.43364H130.692V2.14746H131.888ZM133.862 2.14746V3.08434H128.739V2.14746H133.862Z" fill="#161C1E"/>
<path d="M135.186 2.14746H136.225L137.964 6.87937L139.698 2.14746H140.741L138.379 8.43364H137.544L135.186 2.14746ZM134.662 2.14746H135.679L135.863 6.49512V8.43364H134.662V2.14746ZM140.244 2.14746H141.266V8.43364H140.064V6.49512L140.244 2.14746Z" fill="#161C1E"/>
</g>
<defs>
<clipPath id="clip0_16316_623">
<rect width="142" height="32" fill="white"/>
</clipPath>
</defs>
</svg>
