<svg width="88" height="20" viewBox="0 0 88 20" fill="none" xmlns="http://www.w3.org/2000/svg">
<g clip-path="url(#clip0_16381_5063)">
<path d="M40.9948 19.6825V10.8201C40.9948 8.96322 40.1459 8.03479 38.4482 8.03479C37.9303 8.03928 37.4247 8.19086 36.9929 8.47115C36.5781 8.7088 36.2388 9.05453 36.0127 9.46987V19.6825H32.6403V10.3041C32.6403 9.60913 32.4201 9.0565 31.9797 8.64623C31.5392 8.23595 30.9192 8.03126 30.1195 8.03214C29.6971 8.03214 29.2368 8.18644 28.7386 8.49503C28.3009 8.7459 27.9298 9.09444 27.6555 9.51231V19.6825H24.2845V5.53602H26.6023L27.29 6.77745C28.2241 5.77298 29.4327 5.27075 30.9156 5.27075C32.8281 5.27075 34.2721 5.78183 35.2478 6.80397C35.7326 6.29656 36.3369 5.91315 37.0078 5.68722C37.7305 5.41562 38.4974 5.27452 39.2714 5.27075C40.8797 5.27075 42.1311 5.72214 43.0255 6.62492C43.92 7.5277 44.3667 8.76559 44.3658 10.3386V19.6825H40.9948Z" fill="white"/>
<path d="M47.0891 19.6817V8.24223H45.2425V5.53522H50.4981V19.6817H47.0891ZM48.8274 0.0522259C49.0847 0.048294 49.34 0.096182 49.5775 0.192919C49.815 0.289656 50.0298 0.433179 50.2083 0.614584C50.3931 0.789791 50.5392 1.00023 50.6377 1.2329C50.7362 1.46558 50.785 1.71556 50.781 1.96743C50.7851 2.2195 50.7363 2.46971 50.6378 2.70262C50.5393 2.93553 50.3932 3.14619 50.2083 3.32159C50.0273 3.49981 49.8121 3.64122 49.5752 3.73772C49.3382 3.83421 49.0841 3.88389 48.8274 3.88389C48.5708 3.88389 48.3167 3.83421 48.0797 3.73772C47.8427 3.64122 47.6276 3.49981 47.4465 3.32159C47.2617 3.14619 47.1155 2.93553 47.017 2.70262C46.9185 2.46971 46.8698 2.2195 46.8739 1.96743C46.8699 1.71556 46.9187 1.46558 47.0172 1.2329C47.1157 1.00023 47.2618 0.789791 47.4465 0.614584C47.6251 0.433179 47.8398 0.289656 48.0774 0.192919C48.3149 0.096182 48.5702 0.048294 48.8274 0.0522259Z" fill="white"/>
<path d="M62.4307 19.6825V11.5071C62.4307 10.3001 62.1947 9.41947 61.7227 8.86507C61.2506 8.31067 60.4803 8.03303 59.4117 8.03214C58.8585 8.04695 58.3163 8.18724 57.8277 8.44197C57.3154 8.67673 56.8658 9.02499 56.5145 9.45926V19.6825H53.1448V5.53602H55.5709L56.1909 6.86233C57.107 5.80128 58.4608 5.27075 60.2524 5.27075C61.9673 5.27075 63.3211 5.77519 64.3139 6.78408C65.3067 7.79296 65.8031 9.19974 65.8031 11.0044V19.6825H62.4307Z" fill="white"/>
<path d="M68.405 8.19162H66.733V5.53899H68.405V2.65558L71.7733 1.44067V5.53634H75.7359V8.18897H71.7733V14.3842C71.7733 15.3975 71.9348 16.1128 72.2579 16.5302C72.5811 16.9475 73.1474 17.1584 73.957 17.1628C74.7596 17.1641 75.5456 16.9384 76.2206 16.5129V19.5502C75.4399 19.8155 74.3257 19.9481 72.878 19.9481C71.4303 19.9481 70.3256 19.5502 69.5638 18.7544C68.7903 17.9586 68.404 16.8246 68.405 15.3524V8.19162Z" fill="white"/>
<path d="M12.0946 4.73254L8.2416 8.8733L2.1223 0.138184H8.87519L12.0946 4.73254Z" fill="white"/>
<path d="M22.5678 19.6824H15.8149L13.5026 16.3825C14.9565 15.287 16.2264 13.9753 17.2662 12.495C17.3109 12.4314 17.3556 12.3624 17.4016 12.3027L22.5678 19.6824Z" fill="white"/>
<path d="M5.17874 14.378L16.0229 11.6326C15.0865 12.9686 13.9448 14.1546 12.6383 15.1486C9.84268 17.2959 5.80692 19.0666 0.000350952 19.9486L5.17874 14.378Z" fill="white"/>
<path d="M18.548 5.25342C18.3079 6.83717 17.8211 8.37545 17.1049 9.81462L7.05404 12.3598L12.1647 6.86887L18.548 5.25342Z" fill="white"/>
<path d="M18.7132 3.66886L14.0411 4.85194L18.5074 0.052002C18.5074 0.052002 18.8377 1.51891 18.7132 3.66886Z" fill="white"/>
<path d="M81.7338 1.3418V5.27066H80.9921V1.3418H81.7338ZM82.9572 1.3418V1.92735H79.7822V1.3418H82.9572Z" fill="white"/>
<path d="M83.7773 1.3418H84.4215L85.4988 4.29924L86.5733 1.3418H87.2202L85.7559 5.27066H85.2389L83.7773 1.3418ZM83.4525 1.3418H84.0832L84.1968 4.05908V5.27066H83.4525V1.3418ZM86.9117 1.3418H87.545V5.27066H86.8007V4.05908L86.9117 1.3418Z" fill="white"/>
</g>
<defs>
<clipPath id="clip0_16381_5063">
<rect width="88" height="20" fill="white"/>
</clipPath>
</defs>
</svg>
