<svg width="45" height="46" viewBox="0 0 45 46" fill="none" xmlns="http://www.w3.org/2000/svg">
<path d="M24.2318 12.3393L16.7126 20.7164L4.77075 3.04449H17.9491L24.2318 12.3393Z" fill="#161C1E"/>
<path d="M44.6704 42.5878H31.492L26.9795 35.9118C29.8169 33.6956 32.2951 31.042 34.3243 28.0472C34.4115 27.9184 34.4987 27.7789 34.5885 27.6582L44.6704 42.5878Z" fill="#161C1E"/>
<path d="M10.7356 31.8553L31.8981 26.301C30.0708 29.0038 27.8427 31.4032 25.2931 33.4143C19.8373 37.7584 11.9615 41.3406 0.629883 43.1249L10.7356 31.8553Z" fill="#161C1E"/>
<path d="M36.826 13.3966C36.3573 16.6006 35.4074 19.7127 34.0096 22.6243L14.3953 27.7734L24.3689 16.6648L36.826 13.3966Z" fill="#161C1E"/>
<path d="M37.1481 10.1922L28.0305 12.5857L36.7465 2.875C36.7465 2.875 37.3912 5.84267 37.1481 10.1922Z" fill="#161C1E"/>
</svg>
