<svg width="246" height="60" viewBox="0 0 246 60" fill="none" xmlns="http://www.w3.org/2000/svg">
<path d="M110.929 56.2808V32.2256C110.929 27.1856 108.632 24.6656 104.038 24.6656C102.636 24.6778 101.268 25.0892 100.099 25.85C98.9772 26.4951 98.059 27.4335 97.4472 28.5608V56.2808H88.3216V30.8252C88.3216 28.9388 87.7257 27.4388 86.5339 26.3252C85.3421 25.2116 83.6642 24.656 81.5004 24.6584C80.3574 24.6584 79.1118 25.0772 77.7637 25.9148C76.5793 26.5958 75.5751 27.5418 74.833 28.676V56.2808H65.7111V17.8832H71.9828L73.8438 21.2528C76.3716 18.5264 79.6418 17.1632 83.6544 17.1632C88.8296 17.1632 92.7373 18.5504 95.3774 21.3248C96.6893 19.9476 98.3243 18.9069 100.14 18.2936C102.095 17.5564 104.171 17.1734 106.265 17.1632C110.617 17.1632 114.003 18.3884 116.424 20.8388C118.844 23.2892 120.053 26.6492 120.05 30.9188V56.2808H110.929Z" fill="white"/>
<path d="M127.419 56.2806V25.2306H122.422V17.883H136.644V56.2806H127.419ZM132.123 3.00061C132.819 2.98994 133.51 3.11992 134.153 3.38249C134.796 3.64506 135.377 4.03462 135.86 4.52701C136.36 5.00257 136.755 5.57375 137.022 6.2053C137.288 6.83686 137.42 7.51538 137.409 8.19901C137.42 8.88321 137.289 9.56236 137.022 10.1945C136.756 10.8267 136.36 11.3985 135.86 11.8746C135.37 12.3583 134.788 12.7422 134.146 13.0041C133.505 13.266 132.818 13.4008 132.123 13.4008C131.429 13.4008 130.741 13.266 130.1 13.0041C129.459 12.7422 128.876 12.3583 128.387 11.8746C127.886 11.3985 127.491 10.8267 127.224 10.1945C126.958 9.56236 126.826 8.88321 126.837 8.19901C126.826 7.51538 126.958 6.83686 127.225 6.2053C127.491 5.57375 127.887 5.00257 128.387 4.52701C128.87 4.03462 129.451 3.64506 130.094 3.38249C130.736 3.11992 131.427 2.98994 132.123 3.00061Z" fill="white"/>
<path d="M168.933 56.2808V34.0904C168.933 30.8144 168.294 28.424 167.017 26.9192C165.74 25.4144 163.655 24.6608 160.763 24.6584C159.266 24.6986 157.799 25.0794 156.477 25.7708C155.091 26.408 153.874 27.3533 152.924 28.532V56.2808H143.806V17.8832H150.37L152.048 21.4832C154.527 18.6032 158.191 17.1632 163.038 17.1632C167.679 17.1632 171.342 18.5324 174.029 21.2708C176.715 24.0092 178.058 27.8276 178.058 32.726V56.2808H168.933Z" fill="white"/>
<path d="M185.101 25.0908H180.577V17.8908H185.101V10.0644L194.216 6.76685V17.8836H204.938V25.0836H194.216V41.8993C194.216 44.6497 194.653 46.5913 195.527 47.7241C196.401 48.8569 197.934 49.4293 200.125 49.4412C202.297 49.4446 204.423 48.8321 206.25 47.6772V55.9212C204.137 56.6413 201.122 57.0013 197.205 57.0013C193.288 57.0013 190.298 55.9212 188.237 53.7612C186.144 51.6012 185.099 48.5233 185.101 44.5272V25.0908Z" fill="white"/>
<path d="M32.7269 15.7005L22.3008 26.9397L5.74219 3.2301H24.0153L32.7269 15.7005Z" fill="white"/>
<path d="M61.0671 56.2811H42.794L36.5369 47.3243C40.4712 44.3509 43.9075 40.7906 46.7211 36.7727C46.842 36.5999 46.9629 36.4127 47.0875 36.2507L61.0671 56.2811Z" fill="white"/>
<path d="M14.0125 41.8818L43.3565 34.4298C40.8227 38.0561 37.7333 41.2753 34.1979 43.9734C26.633 49.8018 15.7124 54.6078 0 57.0018L14.0125 41.8818Z" fill="white"/>
<path d="M50.1893 17.1162C49.5394 21.415 48.2223 25.5903 46.2841 29.4966L19.0869 36.405L32.9163 21.501L50.1893 17.1162Z" fill="white"/>
<path d="M50.6368 12.8172L37.9944 16.0284L50.08 3C50.08 3 50.9739 6.9816 50.6368 12.8172Z" fill="white"/>
<path d="M235.615 56.2831V18.6687L225 25.0446V16.1397C231.815 12.8389 237.206 8.75451 241.171 3.88647H244.876V56.2831H235.615Z" fill="white"/>
</svg>
