<svg width="20" height="20" viewBox="0 0 20 20" fill="none" xmlns="http://www.w3.org/2000/svg">
<path d="M8.75 10C8.75 8.20507 10.2051 6.75 12 6.75H18C18.6904 6.75 19.25 7.30964 19.25 8V12C19.25 12.6904 18.6904 13.25 18 13.25H12C10.2051 13.25 8.75 11.7949 8.75 10Z" stroke="#161C1E" stroke-width="1.5"/>
<path fill-rule="evenodd" clip-rule="evenodd" d="M2 2.5H16C16.2761 2.5 16.5 2.72386 16.5 3V6H18V3C18 1.89543 17.1046 1 16 1H2C0.895431 1 0 1.89543 0 3V17C0 18.1046 0.89543 19 2 19H16C17.1046 19 18 18.1046 18 17V14H16.5V17C16.5 17.2761 16.2761 17.5 16 17.5H2C1.72386 17.5 1.5 17.2761 1.5 17V3C1.5 2.72386 1.72386 2.5 2 2.5Z" fill="#161C1E"/>
<circle cx="12" cy="10" r="1" fill="#161C1E"/>
</svg>
